<svg xmlns="http://www.w3.org/2000/svg" xmlns:xlink="http://www.w3.org/1999/xlink" width="600" zoomAndPan="magnify" viewBox="0 0 450 149.999998" height="200" preserveAspectRatio="xMidYMid meet" version="1.0"><defs><g/></defs><g fill="#000000" fill-opacity="1"><g transform="translate(3.688528, 59.422153)"><g><path d="M 38.515625 -19.75 C 38.515625 -17.0625 38.03125 -14.46875 37.0625 -11.96875 C 36.101562 -9.46875 34.800781 -7.265625 33.15625 -5.359375 C 31.507812 -3.453125 29.585938 -1.929688 27.390625 -0.796875 C 25.203125 0.335938 22.863281 0.90625 20.375 0.90625 C 17.875 0.90625 15.523438 0.3125 13.328125 -0.875 C 11.140625 -2.070312 9.238281 -3.625 7.625 -5.53125 C 6.019531 -7.4375 4.753906 -9.597656 3.828125 -12.015625 C 2.898438 -14.441406 2.4375 -16.90625 2.4375 -19.40625 C 2.4375 -22.769531 2.9375 -25.785156 3.9375 -28.453125 C 4.945312 -31.117188 6.28125 -33.367188 7.9375 -35.203125 C 9.601562 -37.035156 11.515625 -38.429688 13.671875 -39.390625 C 15.828125 -40.359375 18.0625 -40.84375 20.375 -40.84375 C 23.019531 -40.84375 25.445312 -40.296875 27.65625 -39.203125 C 29.875 -38.109375 31.785156 -36.613281 33.390625 -34.71875 C 34.992188 -32.832031 36.25 -30.601562 37.15625 -28.03125 C 38.0625 -25.457031 38.515625 -22.695312 38.515625 -19.75 Z M 20.53125 -0.109375 C 22.125 -0.109375 23.457031 -0.4375 24.53125 -1.09375 C 25.613281 -1.757812 26.484375 -2.859375 27.140625 -4.390625 C 27.804688 -5.921875 28.28125 -7.941406 28.5625 -10.453125 C 28.84375 -12.972656 28.984375 -16.109375 28.984375 -19.859375 C 28.984375 -23.484375 28.785156 -26.816406 28.390625 -29.859375 C 27.992188 -32.910156 27.25 -35.285156 26.15625 -36.984375 C 25.507812 -37.929688 24.757812 -38.640625 23.90625 -39.109375 C 23.0625 -39.585938 21.921875 -39.828125 20.484375 -39.828125 C 18.703125 -39.828125 17.328125 -39.445312 16.359375 -38.6875 C 15.398438 -37.9375 14.597656 -36.820312 13.953125 -35.34375 C 13.203125 -33.644531 12.679688 -31.488281 12.390625 -28.875 C 12.109375 -26.269531 11.96875 -23.28125 11.96875 -19.90625 C 11.96875 -16.238281 12.109375 -13.144531 12.390625 -10.625 C 12.679688 -8.113281 13.144531 -6.070312 13.78125 -4.5 C 14.425781 -2.9375 15.296875 -1.8125 16.390625 -1.125 C 17.492188 -0.445312 18.875 -0.109375 20.53125 -0.109375 Z M 20.53125 -0.109375 "/></g></g></g><g fill="#000000" fill-opacity="1"><g transform="translate(43.391639, 59.422153)"><g><path d="M 21.78125 -39.9375 C 24.625 -39.9375 27.265625 -39.472656 29.703125 -38.546875 C 32.140625 -37.617188 34.242188 -36.285156 36.015625 -34.546875 C 37.796875 -32.804688 39.1875 -30.6875 40.1875 -28.1875 C 41.195312 -25.695312 41.703125 -22.882812 41.703125 -19.75 C 41.703125 -18.195312 41.519531 -16.601562 41.15625 -14.96875 C 40.800781 -13.34375 40.242188 -11.753906 39.484375 -10.203125 C 38.734375 -8.660156 37.769531 -7.226562 36.59375 -5.90625 C 35.414062 -4.582031 34.015625 -3.460938 32.390625 -2.546875 C 30.953125 -1.753906 29.382812 -1.128906 27.6875 -0.671875 C 25.988281 -0.222656 23.984375 0 21.671875 0 L 1.984375 0 L 1.984375 -1.015625 L 6.578125 -1.015625 L 6.578125 -38.921875 L 1.984375 -38.921875 L 1.984375 -39.9375 Z M 20.375 -1.015625 C 21.164062 -1.015625 21.984375 -1.082031 22.828125 -1.21875 C 23.679688 -1.351562 24.492188 -1.570312 25.265625 -1.875 C 26.046875 -2.175781 26.773438 -2.59375 27.453125 -3.125 C 28.140625 -3.65625 28.75 -4.296875 29.28125 -5.046875 C 29.726562 -5.734375 30.128906 -6.488281 30.484375 -7.3125 C 30.847656 -8.144531 31.148438 -9.140625 31.390625 -10.296875 C 31.640625 -11.453125 31.832031 -12.832031 31.96875 -14.4375 C 32.101562 -16.039062 32.171875 -17.960938 32.171875 -20.203125 C 32.171875 -22.460938 32.101562 -24.414062 31.96875 -26.0625 C 31.832031 -27.707031 31.648438 -29.117188 31.421875 -30.296875 C 31.203125 -31.472656 30.921875 -32.457031 30.578125 -33.25 C 30.234375 -34.039062 29.835938 -34.738281 29.390625 -35.34375 C 27.609375 -37.726562 24.847656 -38.921875 21.109375 -38.921875 L 15.4375 -38.921875 L 15.4375 -1.015625 Z M 20.375 -1.015625 "/></g></g></g><g fill="#000000" fill-opacity="1"><g transform="translate(86.271017, 59.422153)"><g><path d="M 32.96875 -39.9375 L 32.96875 -28.65625 L 31.9375 -28.65625 L 31.9375 -29.21875 C 31.9375 -30.800781 31.660156 -32.1875 31.109375 -33.375 C 30.566406 -34.570312 29.820312 -35.585938 28.875 -36.421875 C 27.925781 -37.253906 26.816406 -37.878906 25.546875 -38.296875 C 24.285156 -38.710938 22.957031 -38.921875 21.5625 -38.921875 L 14.6875 -38.921875 L 14.6875 -21.5625 L 18.671875 -21.5625 C 20.109375 -21.5625 21.28125 -21.921875 22.1875 -22.640625 C 23.09375 -23.359375 23.695312 -24.566406 24 -26.265625 C 24.070312 -26.796875 24.125 -27.316406 24.15625 -27.828125 C 24.195312 -28.335938 24.21875 -28.953125 24.21875 -29.671875 L 25.25 -29.671875 L 25.25 -11.75 L 24.21875 -11.75 L 24.21875 -12.828125 C 24.21875 -14.148438 24.066406 -15.300781 23.765625 -16.28125 C 23.460938 -17.269531 23.054688 -18.070312 22.546875 -18.6875 C 22.035156 -19.3125 21.445312 -19.773438 20.78125 -20.078125 C 20.125 -20.378906 19.4375 -20.53125 18.71875 -20.53125 L 14.6875 -20.53125 L 14.6875 -1.015625 L 23.09375 -1.015625 C 26.269531 -1.015625 28.800781 -2 30.6875 -3.96875 C 32.582031 -5.9375 33.53125 -8.679688 33.53125 -12.203125 L 33.53125 -12.765625 L 34.546875 -12.765625 L 34.546875 0 L 1.25 0 L 1.25 -1.015625 L 5.84375 -1.015625 L 5.84375 -38.921875 L 1.25 -38.921875 L 1.25 -39.9375 Z M 32.96875 -39.9375 "/></g></g></g><g fill="#000000" fill-opacity="1"><g transform="translate(122.854566, 59.422153)"><g><path d="M 19.6875 -39.9375 L 19.6875 -38.921875 L 14.1875 -38.921875 L 24.734375 -10.546875 C 26.171875 -14.441406 27.390625 -17.742188 28.390625 -20.453125 C 29.398438 -23.160156 30.234375 -25.410156 30.890625 -27.203125 C 31.554688 -29.003906 32.078125 -30.429688 32.453125 -31.484375 C 32.828125 -32.546875 33.109375 -33.394531 33.296875 -34.03125 C 33.492188 -34.675781 33.617188 -35.1875 33.671875 -35.5625 C 33.722656 -35.945312 33.75 -36.367188 33.75 -36.828125 C 33.75 -37.546875 33.519531 -38.070312 33.0625 -38.40625 C 32.613281 -38.75 31.863281 -38.921875 30.8125 -38.921875 L 29.5 -38.921875 L 29.5 -39.9375 L 40.34375 -39.9375 L 40.34375 -38.921875 L 39.484375 -38.921875 C 38.992188 -38.921875 38.550781 -38.832031 38.15625 -38.65625 C 37.757812 -38.488281 37.367188 -38.164062 36.984375 -37.6875 C 36.609375 -37.21875 36.203125 -36.539062 35.765625 -35.65625 C 35.335938 -34.769531 34.859375 -33.625 34.328125 -32.21875 L 21.84375 0.90625 L 19.578125 0.90625 L 4.65625 -38.921875 L 0.625 -38.921875 L 0.625 -39.9375 Z M 19.6875 -39.9375 "/></g></g></g><g fill="#000000" fill-opacity="1"><g transform="translate(162.557673, 59.422153)"><g><path d="M 18.375 -40.84375 L 19.234375 -40.84375 L 34.4375 -1.015625 L 37.21875 -1.015625 L 37.21875 0 L 20.3125 0 L 20.3125 -1.015625 L 24.84375 -1.015625 L 20.703125 -12.828125 L 9.703125 -12.828125 C 9.429688 -12.066406 9.132812 -11.203125 8.8125 -10.234375 C 8.5 -9.273438 8.171875 -8.300781 7.828125 -7.3125 C 7.523438 -6.40625 7.238281 -5.582031 6.96875 -4.84375 C 6.707031 -4.113281 6.578125 -3.539062 6.578125 -3.125 C 6.578125 -1.71875 7.523438 -1.015625 9.421875 -1.015625 L 10.890625 -1.015625 L 10.890625 0 L 0.625 0 L 0.625 -1.015625 L 1.140625 -1.015625 C 2.117188 -1.015625 2.9375 -1.296875 3.59375 -1.859375 C 4.257812 -2.429688 4.765625 -3.191406 5.109375 -4.140625 L 5.953125 -6.46875 Z M 15.203125 -28.203125 L 10.15625 -13.84375 L 20.25 -13.84375 L 15.3125 -28.203125 Z M 15.203125 -28.203125 "/></g></g></g><g fill="#000000" fill-opacity="1"><g transform="translate(199.141216, 59.422153)"><g><path d="M 20.078125 -39.9375 L 20.078125 -38.921875 L 14.984375 -38.921875 L 14.984375 -1.015625 L 21.609375 -1.015625 C 23.429688 -1.015625 25.085938 -1.191406 26.578125 -1.546875 C 28.078125 -1.910156 29.363281 -2.519531 30.4375 -3.375 C 31.519531 -4.226562 32.351562 -5.375 32.9375 -6.8125 C 33.519531 -8.25 33.8125 -10.046875 33.8125 -12.203125 L 33.8125 -13.609375 L 34.828125 -13.609375 L 34.828125 0 L 1.53125 0 L 1.53125 -1.015625 L 6.125 -1.015625 L 6.125 -38.921875 L 1.53125 -38.921875 L 1.53125 -39.9375 Z M 20.078125 -39.9375 "/></g></g></g><g fill="#000000" fill-opacity="1"><g transform="translate(235.724758, 59.422153)"><g><path d="M 20.078125 -39.9375 L 20.078125 -38.921875 L 14.984375 -38.921875 L 14.984375 -1.015625 L 21.609375 -1.015625 C 23.429688 -1.015625 25.085938 -1.191406 26.578125 -1.546875 C 28.078125 -1.910156 29.363281 -2.519531 30.4375 -3.375 C 31.519531 -4.226562 32.351562 -5.375 32.9375 -6.8125 C 33.519531 -8.25 33.8125 -10.046875 33.8125 -12.203125 L 33.8125 -13.609375 L 34.828125 -13.609375 L 34.828125 0 L 1.53125 0 L 1.53125 -1.015625 L 6.125 -1.015625 L 6.125 -38.921875 L 1.53125 -38.921875 L 1.53125 -39.9375 Z M 20.078125 -39.9375 "/></g></g></g><g fill="#000000" fill-opacity="1"><g transform="translate(272.314746, 59.422153)"><g/></g></g><g fill="#000000" fill-opacity="1"><g transform="translate(3.688528, 120.632338)"><g><path d="M 16.265625 -36.578125 L 16.8125 -36.578125 L 29.171875 -0.8125 L 33.390625 -0.8125 L 33.390625 0 L 18.5 0 L 18.5 -0.8125 L 23.46875 -0.8125 L 19.8125 -11.578125 L 8.9375 -11.578125 C 8.257812 -9.515625 7.734375 -7.898438 7.359375 -6.734375 C 6.992188 -5.566406 6.71875 -4.675781 6.53125 -4.0625 C 6.34375 -3.457031 6.222656 -3.035156 6.171875 -2.796875 C 6.117188 -2.554688 6.09375 -2.316406 6.09375 -2.078125 C 6.09375 -1.234375 6.890625 -0.8125 8.484375 -0.8125 L 10.96875 -0.8125 L 10.96875 0 L 0.515625 0 L 0.515625 -0.8125 L 2.34375 -0.8125 C 3.289062 -0.8125 3.941406 -1.066406 4.296875 -1.578125 C 4.648438 -2.085938 5.03125 -2.929688 5.4375 -4.109375 Z M 14.234375 -27.796875 L 9.25 -12.390625 L 19.5625 -12.390625 L 14.328125 -27.796875 Z M 14.234375 -27.796875 "/></g></g></g><g fill="#000000" fill-opacity="1"><g transform="translate(36.454434, 120.632338)"><g><path d="M 16.671875 -35.765625 C 19.515625 -35.765625 22.003906 -35.253906 24.140625 -34.234375 C 26.273438 -33.222656 28.050781 -31.878906 29.46875 -30.203125 C 30.894531 -28.523438 31.960938 -26.609375 32.671875 -24.453125 C 33.378906 -22.304688 33.734375 -20.097656 33.734375 -17.828125 C 33.734375 -14.984375 33.300781 -12.460938 32.4375 -10.265625 C 31.570312 -8.066406 30.378906 -6.203125 28.859375 -4.671875 C 27.335938 -3.148438 25.539062 -1.988281 23.46875 -1.1875 C 21.40625 -0.394531 19.15625 0 16.71875 0 L 0.515625 0 L 0.515625 -0.8125 L 5.328125 -0.8125 L 5.328125 -34.953125 L 0.515625 -34.953125 L 0.515625 -35.765625 Z M 14.9375 -0.8125 C 19.039062 -0.8125 22.234375 -2.21875 24.515625 -5.03125 C 26.804688 -7.84375 27.953125 -12.128906 27.953125 -17.890625 C 27.953125 -23.785156 26.722656 -28.101562 24.265625 -30.84375 C 21.804688 -33.582031 18.085938 -34.953125 13.109375 -34.953125 L 10.515625 -34.953125 L 10.515625 -0.8125 Z M 14.9375 -0.8125 "/></g></g></g><g fill="#000000" fill-opacity="1"><g transform="translate(72.01436, 120.632338)"><g><path d="M 15.75 -35.765625 L 15.75 -34.953125 L 10.828125 -34.953125 L 20.171875 -7.171875 L 20.28125 -7.171875 L 27.484375 -27.4375 C 28.023438 -29 28.457031 -30.210938 28.78125 -31.078125 C 29.101562 -31.941406 29.265625 -32.59375 29.265625 -33.03125 C 29.265625 -33.875 28.910156 -34.40625 28.203125 -34.625 C 27.492188 -34.84375 26.34375 -34.953125 24.75 -34.953125 L 24.75 -35.765625 L 35.828125 -35.765625 L 35.828125 -34.953125 L 34.65625 -34.953125 C 33.90625 -34.953125 33.351562 -34.898438 33 -34.796875 C 32.644531 -34.703125 32.300781 -34.570312 31.96875 -34.40625 C 31.59375 -34.195312 31.234375 -33.863281 30.890625 -33.40625 C 30.554688 -32.945312 30.234375 -32.296875 29.921875 -31.453125 L 18.140625 1.21875 L 17.625 1.21875 L 4.984375 -34.953125 L 0.859375 -34.953125 L 0.859375 -35.765625 Z M 15.75 -35.765625 "/></g></g></g><g fill="#000000" fill-opacity="1"><g transform="translate(107.574286, 120.632338)"><g><path d="M 34.40625 -17.890625 C 34.40625 -15.347656 33.976562 -12.945312 33.125 -10.6875 C 32.28125 -8.4375 31.128906 -6.457031 29.671875 -4.75 C 28.210938 -3.039062 26.507812 -1.6875 24.5625 -0.6875 C 22.613281 0.3125 20.539062 0.8125 18.34375 0.8125 C 16.144531 0.8125 14.070312 0.3125 12.125 -0.6875 C 10.175781 -1.6875 8.472656 -3.039062 7.015625 -4.75 C 5.554688 -6.457031 4.398438 -8.4375 3.546875 -10.6875 C 2.703125 -12.945312 2.28125 -15.347656 2.28125 -17.890625 C 2.28125 -20.429688 2.703125 -22.832031 3.546875 -25.09375 C 4.398438 -27.363281 5.554688 -29.347656 7.015625 -31.046875 C 8.472656 -32.742188 10.175781 -34.085938 12.125 -35.078125 C 14.070312 -36.078125 16.144531 -36.578125 18.34375 -36.578125 C 20.539062 -36.578125 22.613281 -36.078125 24.5625 -35.078125 C 26.507812 -34.085938 28.210938 -32.742188 29.671875 -31.046875 C 31.128906 -29.347656 32.28125 -27.363281 33.125 -25.09375 C 33.976562 -22.832031 34.40625 -20.429688 34.40625 -17.890625 Z M 18.34375 0 C 21.695312 0 24.242188 -1.503906 25.984375 -4.515625 C 27.734375 -7.535156 28.609375 -11.992188 28.609375 -17.890625 C 28.609375 -23.785156 27.734375 -28.238281 25.984375 -31.25 C 24.242188 -34.257812 21.679688 -35.765625 18.296875 -35.765625 C 15.109375 -35.765625 12.609375 -34.304688 10.796875 -31.390625 C 8.984375 -28.484375 8.078125 -23.984375 8.078125 -17.890625 C 8.078125 -11.992188 8.945312 -7.535156 10.6875 -4.515625 C 12.4375 -1.503906 14.988281 0 18.34375 0 Z M 18.34375 0 "/></g></g></g><g fill="#000000" fill-opacity="1"><g transform="translate(143.134213, 120.632338)"><g><path d="M 16.203125 -35.765625 L 16.203125 -34.953125 L 11.078125 -34.953125 L 11.078125 -18.296875 L 20.6875 -27.546875 C 24.3125 -31.035156 26.125 -33.148438 26.125 -33.890625 C 26.125 -34.597656 25.492188 -34.953125 24.234375 -34.953125 L 21.1875 -34.953125 L 21.1875 -35.765625 L 34.5 -35.765625 L 34.5 -34.953125 L 33.125 -34.953125 C 32.550781 -34.953125 32.019531 -34.910156 31.53125 -34.828125 C 31.039062 -34.742188 30.539062 -34.566406 30.03125 -34.296875 C 29.414062 -34.023438 28.742188 -33.617188 28.015625 -33.078125 C 27.296875 -32.535156 26.476562 -31.820312 25.5625 -30.9375 L 15.546875 -21.34375 L 30.078125 -2.796875 C 30.347656 -2.453125 30.582031 -2.15625 30.78125 -1.90625 C 30.988281 -1.65625 31.191406 -1.453125 31.390625 -1.296875 C 31.597656 -1.140625 31.835938 -1.019531 32.109375 -0.9375 C 32.378906 -0.851562 32.738281 -0.8125 33.1875 -0.8125 L 35.765625 -0.8125 L 35.765625 0 L 20.015625 0 L 20.015625 -0.8125 L 24.75 -0.8125 L 11.734375 -17.625 L 11.078125 -17.125 L 11.078125 -0.8125 L 16.203125 -0.8125 L 16.203125 0 L 1.265625 0 L 1.265625 -0.8125 L 5.890625 -0.8125 L 5.890625 -34.953125 L 1.265625 -34.953125 L 1.265625 -35.765625 Z M 16.203125 -35.765625 "/></g></g></g><g fill="#000000" fill-opacity="1"><g transform="translate(178.694139, 120.632338)"><g><path d="M 16.265625 -36.578125 L 16.8125 -36.578125 L 29.171875 -0.8125 L 33.390625 -0.8125 L 33.390625 0 L 18.5 0 L 18.5 -0.8125 L 23.46875 -0.8125 L 19.8125 -11.578125 L 8.9375 -11.578125 C 8.257812 -9.515625 7.734375 -7.898438 7.359375 -6.734375 C 6.992188 -5.566406 6.71875 -4.675781 6.53125 -4.0625 C 6.34375 -3.457031 6.222656 -3.035156 6.171875 -2.796875 C 6.117188 -2.554688 6.09375 -2.316406 6.09375 -2.078125 C 6.09375 -1.234375 6.890625 -0.8125 8.484375 -0.8125 L 10.96875 -0.8125 L 10.96875 0 L 0.515625 0 L 0.515625 -0.8125 L 2.34375 -0.8125 C 3.289062 -0.8125 3.941406 -1.066406 4.296875 -1.578125 C 4.648438 -2.085938 5.03125 -2.929688 5.4375 -4.109375 Z M 14.234375 -27.796875 L 9.25 -12.390625 L 19.5625 -12.390625 L 14.328125 -27.796875 Z M 14.234375 -27.796875 "/></g></g></g><g fill="#000000" fill-opacity="1"><g transform="translate(211.460045, 120.632338)"><g><path d="M 32.515625 -35.765625 L 32.515625 -25.25 L 31.703125 -25.25 C 31.703125 -27.28125 31.550781 -28.929688 31.25 -30.203125 C 30.945312 -31.472656 30.40625 -32.460938 29.625 -33.171875 C 28.84375 -33.890625 27.75 -34.363281 26.34375 -34.59375 C 24.9375 -34.832031 23.148438 -34.953125 20.984375 -34.953125 L 19.5625 -34.953125 L 19.5625 -0.8125 L 24.796875 -0.8125 L 24.796875 0 L 9.140625 0 L 9.140625 -0.8125 L 14.375 -0.8125 L 14.375 -34.953125 L 13.21875 -34.953125 C 11.175781 -34.953125 9.453125 -34.859375 8.046875 -34.671875 C 6.640625 -34.492188 5.503906 -34.085938 4.640625 -33.453125 C 3.785156 -32.828125 3.171875 -31.894531 2.796875 -30.65625 C 2.421875 -29.425781 2.234375 -27.78125 2.234375 -25.71875 L 2.234375 -25.25 L 1.421875 -25.25 L 1.421875 -35.765625 Z M 32.515625 -35.765625 "/></g></g></g><g fill="#000000" fill-opacity="1"><g transform="translate(244.276753, 120.632338)"><g><path d="M 16.203125 -35.765625 C 17.898438 -35.765625 19.457031 -35.5625 20.875 -35.15625 C 22.300781 -34.75 23.519531 -34.191406 24.53125 -33.484375 C 25.550781 -32.773438 26.347656 -31.9375 26.921875 -30.96875 C 27.503906 -30 27.796875 -28.941406 27.796875 -27.796875 C 27.796875 -26.679688 27.640625 -25.625 27.328125 -24.625 C 27.023438 -23.625 26.492188 -22.722656 25.734375 -21.921875 C 24.972656 -21.128906 23.929688 -20.476562 22.609375 -19.96875 C 21.285156 -19.457031 19.609375 -19.132812 17.578125 -19 L 17.578125 -18.90625 C 21.140625 -18.59375 23.894531 -17.648438 25.84375 -16.078125 C 27.789062 -14.503906 28.765625 -12.347656 28.765625 -9.609375 C 28.765625 -8.046875 28.457031 -6.660156 27.84375 -5.453125 C 27.238281 -4.253906 26.425781 -3.25 25.40625 -2.4375 C 24.382812 -1.625 23.222656 -1.015625 21.921875 -0.609375 C 20.617188 -0.203125 19.253906 0 17.828125 0 L 0.515625 0 L 0.515625 -0.8125 L 5.328125 -0.8125 L 5.328125 -34.953125 L 0.515625 -34.953125 L 0.515625 -35.765625 Z M 14.125 -19.40625 C 17.238281 -19.40625 19.429688 -20.066406 20.703125 -21.390625 C 21.972656 -22.710938 22.609375 -24.675781 22.609375 -27.28125 C 22.609375 -28.226562 22.410156 -29.164062 22.015625 -30.09375 C 21.628906 -31.03125 21.046875 -31.851562 20.265625 -32.5625 C 19.492188 -33.28125 18.519531 -33.859375 17.34375 -34.296875 C 16.175781 -34.734375 14.816406 -34.953125 13.265625 -34.953125 L 10.515625 -34.953125 L 10.515625 -19.40625 Z M 14.984375 -0.8125 C 17.460938 -0.8125 19.410156 -1.582031 20.828125 -3.125 C 22.253906 -4.664062 22.96875 -6.976562 22.96875 -10.0625 C 22.96875 -11.28125 22.769531 -12.414062 22.375 -13.46875 C 21.988281 -14.519531 21.394531 -15.425781 20.59375 -16.1875 C 19.800781 -16.945312 18.785156 -17.535156 17.546875 -17.953125 C 16.316406 -18.378906 14.875 -18.59375 13.21875 -18.59375 L 10.515625 -18.59375 L 10.515625 -0.8125 Z M 14.984375 -0.8125 "/></g></g></g><g fill="#000000" fill-opacity="1"><g transform="translate(274.197837, 120.632338)"><g><path d="M 15.296875 -35.765625 L 15.296875 -34.953125 L 11.078125 -34.953125 L 19.5625 -15.296875 L 25.859375 -29.515625 C 26.234375 -30.398438 26.546875 -31.15625 26.796875 -31.78125 C 27.054688 -32.40625 27.1875 -33.007812 27.1875 -33.59375 C 27.1875 -34.5 26.507812 -34.953125 25.15625 -34.953125 L 22.96875 -34.953125 L 22.96875 -35.765625 L 33.390625 -35.765625 L 33.390625 -34.953125 L 31.859375 -34.953125 C 31.316406 -34.953125 30.859375 -34.925781 30.484375 -34.875 C 30.109375 -34.832031 29.773438 -34.691406 29.484375 -34.453125 C 29.203125 -34.210938 28.925781 -33.851562 28.65625 -33.375 C 28.382812 -32.90625 28.0625 -32.25 27.6875 -31.40625 L 19.8125 -13.921875 L 19.8125 -0.8125 L 25.203125 -0.8125 L 25.203125 0 L 9.25 0 L 9.25 -0.8125 L 14.640625 -0.8125 L 14.640625 -13.109375 L 5.125 -34.953125 L 0.515625 -34.953125 L 0.515625 -35.765625 Z M 15.296875 -35.765625 "/></g></g></g><g fill="#000000" fill-opacity="1"><g transform="translate(306.96373, 120.632338)"><g><path d="M 17.125 -35.765625 C 21.125 -35.765625 24.113281 -35.035156 26.09375 -33.578125 C 28.070312 -32.128906 29.0625 -29.863281 29.0625 -26.78125 C 29.0625 -24.4375 28.09375 -22.578125 26.15625 -21.203125 C 24.226562 -19.835938 21.570312 -18.9375 18.1875 -18.5 L 18.1875 -18.390625 C 20.351562 -18.222656 22.054688 -17.894531 23.296875 -17.40625 C 24.535156 -16.914062 25.507812 -16.160156 26.21875 -15.140625 C 26.5625 -14.671875 26.832031 -14.179688 27.03125 -13.671875 C 27.238281 -13.160156 27.425781 -12.503906 27.59375 -11.703125 C 27.757812 -10.910156 27.910156 -9.910156 28.046875 -8.703125 C 28.179688 -7.503906 28.351562 -5.972656 28.5625 -4.109375 C 28.65625 -3.023438 28.894531 -2.15625 29.28125 -1.5 C 29.675781 -0.84375 30.332031 -0.515625 31.25 -0.515625 C 31.726562 -0.515625 32.109375 -0.5625 32.390625 -0.65625 C 32.679688 -0.757812 32.992188 -0.878906 33.328125 -1.015625 L 33.640625 -0.359375 C 32.960938 -0.117188 32.328125 0.0507812 31.734375 0.15625 C 31.140625 0.257812 30.46875 0.3125 29.71875 0.3125 C 28.90625 0.3125 28.144531 0.257812 27.4375 0.15625 C 26.726562 0.0507812 26.09375 -0.140625 25.53125 -0.421875 C 24.96875 -0.710938 24.472656 -1.113281 24.046875 -1.625 C 23.628906 -2.132812 23.300781 -2.8125 23.0625 -3.65625 C 22.789062 -4.5 22.597656 -5.472656 22.484375 -6.578125 C 22.367188 -7.679688 22.25 -8.773438 22.125 -9.859375 C 22.007812 -10.941406 21.875 -11.945312 21.71875 -12.875 C 21.570312 -13.8125 21.34375 -14.566406 21.03125 -15.140625 C 20.664062 -15.816406 20.21875 -16.347656 19.6875 -16.734375 C 19.164062 -17.128906 18.609375 -17.421875 18.015625 -17.609375 C 17.421875 -17.796875 16.816406 -17.90625 16.203125 -17.9375 C 15.597656 -17.96875 15.054688 -17.984375 14.578125 -17.984375 L 11.53125 -17.984375 L 11.53125 -0.8125 L 16.71875 -0.8125 L 16.71875 0 L 1.265625 0 L 1.265625 -0.8125 L 6.34375 -0.8125 L 6.34375 -34.953125 L 1.265625 -34.953125 L 1.265625 -35.765625 Z M 11.53125 -18.796875 L 14.078125 -18.796875 C 17.359375 -18.796875 19.757812 -19.4375 21.28125 -20.71875 C 22.8125 -22.007812 23.578125 -24.03125 23.578125 -26.78125 C 23.578125 -28.300781 23.375 -29.585938 22.96875 -30.640625 C 22.5625 -31.691406 21.984375 -32.535156 21.234375 -33.171875 C 20.492188 -33.816406 19.597656 -34.273438 18.546875 -34.546875 C 17.492188 -34.816406 16.328125 -34.953125 15.046875 -34.953125 L 11.53125 -34.953125 Z M 11.53125 -18.796875 "/></g></g></g><g fill="#000000" fill-opacity="1"><g transform="translate(339.729622, 120.632338)"><g><path d="M 16.265625 -36.578125 L 16.8125 -36.578125 L 29.171875 -0.8125 L 33.390625 -0.8125 L 33.390625 0 L 18.5 0 L 18.5 -0.8125 L 23.46875 -0.8125 L 19.8125 -11.578125 L 8.9375 -11.578125 C 8.257812 -9.515625 7.734375 -7.898438 7.359375 -6.734375 C 6.992188 -5.566406 6.71875 -4.675781 6.53125 -4.0625 C 6.34375 -3.457031 6.222656 -3.035156 6.171875 -2.796875 C 6.117188 -2.554688 6.09375 -2.316406 6.09375 -2.078125 C 6.09375 -1.234375 6.890625 -0.8125 8.484375 -0.8125 L 10.96875 -0.8125 L 10.96875 0 L 0.515625 0 L 0.515625 -0.8125 L 2.34375 -0.8125 C 3.289062 -0.8125 3.941406 -1.066406 4.296875 -1.578125 C 4.648438 -2.085938 5.03125 -2.929688 5.4375 -4.109375 Z M 14.234375 -27.796875 L 9.25 -12.390625 L 19.5625 -12.390625 L 14.328125 -27.796875 Z M 21.1875 -41.765625 C 21.1875 -41.160156 21.066406 -40.578125 20.828125 -40.015625 C 20.585938 -39.453125 20.265625 -38.957031 19.859375 -38.53125 C 19.453125 -38.113281 18.96875 -37.785156 18.40625 -37.546875 C 17.851562 -37.304688 17.253906 -37.1875 16.609375 -37.1875 C 15.960938 -37.1875 15.359375 -37.304688 14.796875 -37.546875 C 14.242188 -37.785156 13.765625 -38.113281 13.359375 -38.53125 C 12.953125 -38.957031 12.628906 -39.453125 12.390625 -40.015625 C 12.148438 -40.578125 12.03125 -41.160156 12.03125 -41.765625 C 12.03125 -42.378906 12.148438 -42.960938 12.390625 -43.515625 C 12.628906 -44.078125 12.953125 -44.566406 13.359375 -44.984375 C 13.765625 -45.410156 14.242188 -45.742188 14.796875 -45.984375 C 15.359375 -46.222656 15.960938 -46.34375 16.609375 -46.34375 C 17.253906 -46.34375 17.851562 -46.222656 18.40625 -45.984375 C 18.96875 -45.742188 19.453125 -45.410156 19.859375 -44.984375 C 20.265625 -44.566406 20.585938 -44.078125 20.828125 -43.515625 C 21.066406 -42.960938 21.1875 -42.378906 21.1875 -41.765625 Z M 16.609375 -38.71875 C 17.453125 -38.71875 18.171875 -39.019531 18.765625 -39.625 C 19.359375 -40.238281 19.65625 -40.953125 19.65625 -41.765625 C 19.65625 -42.578125 19.359375 -43.285156 18.765625 -43.890625 C 18.171875 -44.503906 17.4375 -44.8125 16.5625 -44.8125 C 15.75 -44.8125 15.046875 -44.503906 14.453125 -43.890625 C 13.859375 -43.285156 13.5625 -42.578125 13.5625 -41.765625 C 13.5625 -40.953125 13.859375 -40.238281 14.453125 -39.625 C 15.046875 -39.019531 15.765625 -38.71875 16.609375 -38.71875 Z M 16.609375 -38.71875 "/></g></g></g><g fill="#000000" fill-opacity="1"><g transform="translate(372.495515, 120.632338)"><g/></g></g><g fill="#000000" fill-opacity="1"><g transform="translate(385.500031, 120.632338)"><g><path d="M 16.265625 -36.578125 L 16.8125 -36.578125 L 29.171875 -0.8125 L 33.390625 -0.8125 L 33.390625 0 L 18.5 0 L 18.5 -0.8125 L 23.46875 -0.8125 L 19.8125 -11.578125 L 8.9375 -11.578125 C 8.257812 -9.515625 7.734375 -7.898438 7.359375 -6.734375 C 6.992188 -5.566406 6.71875 -4.675781 6.53125 -4.0625 C 6.34375 -3.457031 6.222656 -3.035156 6.171875 -2.796875 C 6.117188 -2.554688 6.09375 -2.316406 6.09375 -2.078125 C 6.09375 -1.234375 6.890625 -0.8125 8.484375 -0.8125 L 10.96875 -0.8125 L 10.96875 0 L 0.515625 0 L 0.515625 -0.8125 L 2.34375 -0.8125 C 3.289062 -0.8125 3.941406 -1.066406 4.296875 -1.578125 C 4.648438 -2.085938 5.03125 -2.929688 5.4375 -4.109375 Z M 14.234375 -27.796875 L 9.25 -12.390625 L 19.5625 -12.390625 L 14.328125 -27.796875 Z M 14.234375 -27.796875 "/></g></g></g><g fill="#000000" fill-opacity="1"><g transform="translate(418.265951, 120.632338)"><g><path d="M 16.203125 -35.765625 C 17.898438 -35.765625 19.457031 -35.5625 20.875 -35.15625 C 22.300781 -34.75 23.519531 -34.191406 24.53125 -33.484375 C 25.550781 -32.773438 26.347656 -31.9375 26.921875 -30.96875 C 27.503906 -30 27.796875 -28.941406 27.796875 -27.796875 C 27.796875 -26.679688 27.640625 -25.625 27.328125 -24.625 C 27.023438 -23.625 26.492188 -22.722656 25.734375 -21.921875 C 24.972656 -21.128906 23.929688 -20.476562 22.609375 -19.96875 C 21.285156 -19.457031 19.609375 -19.132812 17.578125 -19 L 17.578125 -18.90625 C 21.140625 -18.59375 23.894531 -17.648438 25.84375 -16.078125 C 27.789062 -14.503906 28.765625 -12.347656 28.765625 -9.609375 C 28.765625 -8.046875 28.457031 -6.660156 27.84375 -5.453125 C 27.238281 -4.253906 26.425781 -3.25 25.40625 -2.4375 C 24.382812 -1.625 23.222656 -1.015625 21.921875 -0.609375 C 20.617188 -0.203125 19.253906 0 17.828125 0 L 0.515625 0 L 0.515625 -0.8125 L 5.328125 -0.8125 L 5.328125 -34.953125 L 0.515625 -34.953125 L 0.515625 -35.765625 Z M 14.125 -19.40625 C 17.238281 -19.40625 19.429688 -20.066406 20.703125 -21.390625 C 21.972656 -22.710938 22.609375 -24.675781 22.609375 -27.28125 C 22.609375 -28.226562 22.410156 -29.164062 22.015625 -30.09375 C 21.628906 -31.03125 21.046875 -31.851562 20.265625 -32.5625 C 19.492188 -33.28125 18.519531 -33.859375 17.34375 -34.296875 C 16.175781 -34.734375 14.816406 -34.953125 13.265625 -34.953125 L 10.515625 -34.953125 L 10.515625 -19.40625 Z M 14.984375 -0.8125 C 17.460938 -0.8125 19.410156 -1.582031 20.828125 -3.125 C 22.253906 -4.664062 22.96875 -6.976562 22.96875 -10.0625 C 22.96875 -11.28125 22.769531 -12.414062 22.375 -13.46875 C 21.988281 -14.519531 21.394531 -15.425781 20.59375 -16.1875 C 19.800781 -16.945312 18.785156 -17.535156 17.546875 -17.953125 C 16.316406 -18.378906 14.875 -18.59375 13.21875 -18.59375 L 10.515625 -18.59375 L 10.515625 -0.8125 Z M 14.984375 -0.8125 "/></g></g></g></svg>