<svg xmlns="http://www.w3.org/2000/svg" xmlns:xlink="http://www.w3.org/1999/xlink" width="650" zoomAndPan="magnify" viewBox="0 0 487.5 225" height="300" preserveAspectRatio="xMidYMid meet" version="1.0"><defs><g/></defs><g fill="#000000" fill-opacity="1"><g transform="translate(0, 92.911656)"><g><path d="M 20.34375 1.109375 C 22.820312 1.109375 25.15625 0.535156 27.34375 -0.609375 C 29.53125 -1.753906 31.4375 -3.273438 33.0625 -5.171875 C 34.6875 -7.066406 35.972656 -9.242188 36.921875 -11.703125 C 37.878906 -14.171875 38.359375 -16.71875 38.359375 -19.34375 C 38.359375 -21.976562 37.878906 -24.523438 36.921875 -26.984375 C 35.972656 -29.453125 34.6875 -31.625 33.0625 -33.5 C 31.4375 -35.375 29.53125 -36.875 27.34375 -38 C 25.15625 -39.125 22.820312 -39.6875 20.34375 -39.6875 C 17.863281 -39.6875 15.523438 -39.125 13.328125 -38 C 11.140625 -36.875 9.234375 -35.375 7.609375 -33.5 C 5.984375 -31.625 4.695312 -29.453125 3.75 -26.984375 C 2.800781 -24.523438 2.328125 -21.976562 2.328125 -19.34375 C 2.328125 -16.71875 2.800781 -14.171875 3.75 -11.703125 C 4.695312 -9.242188 5.984375 -7.066406 7.609375 -5.171875 C 9.234375 -3.273438 11.140625 -1.753906 13.328125 -0.609375 C 15.523438 0.535156 17.863281 1.109375 20.34375 1.109375 Z M 20.34375 -38.640625 C 22.082031 -38.640625 23.628906 -38.367188 24.984375 -37.828125 C 26.335938 -37.285156 27.46875 -36.375 28.375 -35.09375 C 29.289062 -33.820312 29.988281 -32.140625 30.46875 -30.046875 C 30.957031 -27.953125 31.203125 -25.351562 31.203125 -22.25 L 31.203125 -16.4375 C 31.203125 -10.820312 30.269531 -6.664062 28.40625 -3.96875 C 26.550781 -1.28125 23.863281 0.0625 20.34375 0.0625 C 16.8125 0.0625 14.113281 -1.28125 12.25 -3.96875 C 10.394531 -6.664062 9.46875 -10.820312 9.46875 -16.4375 L 9.46875 -22.25 C 9.46875 -25.269531 9.707031 -27.816406 10.1875 -29.890625 C 10.675781 -31.960938 11.375 -33.648438 12.28125 -34.953125 C 13.195312 -36.253906 14.332031 -37.191406 15.6875 -37.765625 C 17.039062 -38.347656 18.59375 -38.640625 20.34375 -38.640625 Z M 20.34375 -38.640625 "/></g></g></g><g fill="#000000" fill-opacity="1"><g transform="translate(38.872786, 92.911656)"><g><path d="M 19 -39.046875 L 1.859375 -39.046875 L 1.859375 -38.125 L 6.96875 -38.125 L 6.96875 -0.9375 L 1.859375 -0.9375 L 1.859375 0 L 19 0 C 21.707031 0 24.1875 -0.472656 26.4375 -1.421875 C 28.6875 -2.367188 30.601562 -3.710938 32.1875 -5.453125 C 33.78125 -7.203125 35.007812 -9.304688 35.875 -11.765625 C 36.75 -14.222656 37.1875 -16.960938 37.1875 -19.984375 C 37.1875 -22.816406 36.738281 -25.40625 35.84375 -27.75 C 34.957031 -30.09375 33.707031 -32.101562 32.09375 -33.78125 C 30.488281 -35.46875 28.570312 -36.765625 26.34375 -37.671875 C 24.125 -38.585938 21.675781 -39.046875 19 -39.046875 Z M 30.796875 -21.4375 L 30.796875 -18.53125 C 30.796875 -15.082031 30.472656 -12.222656 29.828125 -9.953125 C 29.191406 -7.691406 28.332031 -5.894531 27.25 -4.5625 C 26.164062 -3.226562 24.90625 -2.289062 23.46875 -1.75 C 22.039062 -1.207031 20.515625 -0.9375 18.890625 -0.9375 L 12.609375 -0.9375 L 12.609375 -38.125 L 18.890625 -38.125 C 20.472656 -38.125 21.976562 -37.84375 23.40625 -37.28125 C 24.84375 -36.71875 26.113281 -35.785156 27.21875 -34.484375 C 28.320312 -33.191406 29.191406 -31.476562 29.828125 -29.34375 C 30.472656 -27.21875 30.796875 -24.582031 30.796875 -21.4375 Z M 30.796875 -21.4375 "/></g></g></g><g fill="#000000" fill-opacity="1"><g transform="translate(76.060502, 92.911656)"><g><path d="M 12.546875 -20.109375 L 17.140625 -20.109375 C 17.992188 -20.109375 18.671875 -19.976562 19.171875 -19.71875 C 19.679688 -19.46875 20.078125 -19.109375 20.359375 -18.640625 C 20.648438 -18.179688 20.875 -17.625 21.03125 -16.96875 C 21.1875 -16.3125 21.34375 -15.578125 21.5 -14.765625 C 21.613281 -14.222656 21.769531 -13.953125 21.96875 -13.953125 C 22.195312 -13.953125 22.3125 -14.203125 22.3125 -14.703125 L 22.3125 -26.5 C 22.3125 -26.957031 22.195312 -27.1875 21.96875 -27.1875 C 21.769531 -27.1875 21.613281 -26.914062 21.5 -26.375 C 21.34375 -25.5625 21.1875 -24.828125 21.03125 -24.171875 C 20.875 -23.515625 20.648438 -22.953125 20.359375 -22.484375 C 20.078125 -22.023438 19.679688 -21.664062 19.171875 -21.40625 C 18.671875 -21.15625 17.992188 -21.03125 17.140625 -21.03125 L 12.546875 -21.03125 L 12.546875 -38.125 L 21.390625 -38.125 C 22.703125 -38.125 23.800781 -37.800781 24.6875 -37.15625 C 25.582031 -36.519531 26.300781 -35.726562 26.84375 -34.78125 C 27.382812 -33.832031 27.78125 -32.820312 28.03125 -31.75 C 28.289062 -30.6875 28.4375 -29.726562 28.46875 -28.875 C 28.46875 -28.332031 28.625 -28.0625 28.9375 -28.0625 C 29.207031 -28.0625 29.34375 -28.316406 29.34375 -28.828125 L 29.34375 -37.65625 C 29.34375 -38.582031 28.859375 -39.046875 27.890625 -39.046875 L 1.921875 -39.046875 L 1.921875 -38.125 L 6.921875 -38.125 L 6.921875 -0.9375 L 1.96875 -0.9375 L 1.96875 0 L 29.28125 0 C 30.40625 0 30.96875 -0.617188 30.96875 -1.859375 L 30.96875 -10.578125 C 30.96875 -11.503906 30.8125 -11.96875 30.5 -11.96875 C 30.226562 -11.96875 30.019531 -11.5625 29.875 -10.75 C 29.5625 -9.28125 29.226562 -7.941406 28.875 -6.734375 C 28.53125 -5.535156 28.066406 -4.5 27.484375 -3.625 C 26.898438 -2.757812 26.160156 -2.09375 25.265625 -1.625 C 24.378906 -1.164062 23.257812 -0.9375 21.90625 -0.9375 L 12.546875 -0.9375 Z M 12.546875 -20.109375 "/></g></g></g><g fill="#000000" fill-opacity="1"><g transform="translate(108.134887, 92.911656)"><g><path d="M 16.328125 -39.046875 L 0.640625 -39.046875 L 0.640625 -38.125 L 5.640625 -38.125 L 18.71875 0.578125 L 19.75 0.578125 L 32.1875 -38.125 L 36.375 -38.125 L 36.375 -39.046875 L 25.96875 -39.046875 L 25.96875 -38.125 L 30.96875 -38.125 L 21.328125 -8.078125 L 11.09375 -38.125 L 16.328125 -38.125 Z M 16.328125 -39.046875 "/></g></g></g><g fill="#000000" fill-opacity="1"><g transform="translate(143.579419, 92.911656)"><g><path d="M 1.28125 -0.9375 L 1.28125 0 L 14.171875 0 L 14.171875 -0.9375 L 7.328125 -0.9375 L 10.984375 -12.140625 L 22.65625 -12.140625 L 26.4375 -0.9375 L 20.453125 -0.9375 L 20.453125 0 L 37.484375 0 L 37.484375 -0.9375 L 32.421875 -0.9375 L 19.703125 -39.578125 L 19 -39.578125 L 6.28125 -0.9375 Z M 16.796875 -29.6875 L 22.375 -13.078125 L 11.328125 -13.078125 Z M 16.796875 -29.6875 "/></g></g></g><g fill="#000000" fill-opacity="1"><g transform="translate(180.709022, 92.911656)"><g><path d="M 32.25 -10.75 C 31.9375 -9.28125 31.601562 -7.941406 31.25 -6.734375 C 30.90625 -5.535156 30.441406 -4.5 29.859375 -3.625 C 29.285156 -2.757812 28.550781 -2.09375 27.65625 -1.625 C 26.769531 -1.164062 25.648438 -0.9375 24.296875 -0.9375 L 12.375 -0.9375 L 12.375 -38.125 L 17.890625 -38.125 L 17.890625 -39.046875 L 1.75 -39.046875 L 1.75 -38.125 L 6.734375 -38.125 L 6.734375 -0.9375 L 1.75 -0.9375 L 1.75 0 L 31.671875 0 C 32.796875 0 33.359375 -0.617188 33.359375 -1.859375 L 33.359375 -10.578125 C 33.359375 -11.503906 33.203125 -11.96875 32.890625 -11.96875 C 32.617188 -11.96875 32.40625 -11.5625 32.25 -10.75 Z M 32.25 -10.75 "/></g></g></g><g fill="#000000" fill-opacity="1"><g transform="translate(214.236055, 92.911656)"><g><path d="M 32.25 -10.75 C 31.9375 -9.28125 31.601562 -7.941406 31.25 -6.734375 C 30.90625 -5.535156 30.441406 -4.5 29.859375 -3.625 C 29.285156 -2.757812 28.550781 -2.09375 27.65625 -1.625 C 26.769531 -1.164062 25.648438 -0.9375 24.296875 -0.9375 L 12.375 -0.9375 L 12.375 -38.125 L 17.890625 -38.125 L 17.890625 -39.046875 L 1.75 -39.046875 L 1.75 -38.125 L 6.734375 -38.125 L 6.734375 -0.9375 L 1.75 -0.9375 L 1.75 0 L 31.671875 0 C 32.796875 0 33.359375 -0.617188 33.359375 -1.859375 L 33.359375 -10.578125 C 33.359375 -11.503906 33.203125 -11.96875 32.890625 -11.96875 C 32.617188 -11.96875 32.40625 -11.5625 32.25 -10.75 Z M 32.25 -10.75 "/></g></g></g><g fill="#000000" fill-opacity="1"><g transform="translate(247.771721, 92.911656)"><g/></g></g><g fill="#000000" fill-opacity="1"><g transform="translate(0, 161.403378)"><g><path d="M 1.28125 -0.9375 L 1.28125 0 L 14.171875 0 L 14.171875 -0.9375 L 7.328125 -0.9375 L 10.984375 -12.140625 L 22.65625 -12.140625 L 26.4375 -0.9375 L 20.453125 -0.9375 L 20.453125 0 L 37.484375 0 L 37.484375 -0.9375 L 32.421875 -0.9375 L 19.703125 -39.578125 L 19 -39.578125 L 6.28125 -0.9375 Z M 16.796875 -29.6875 L 22.375 -13.078125 L 11.328125 -13.078125 Z M 16.796875 -29.6875 "/></g></g></g><g fill="#000000" fill-opacity="1"><g transform="translate(37.129605, 161.403378)"><g><path d="M 19 -39.046875 L 1.859375 -39.046875 L 1.859375 -38.125 L 6.96875 -38.125 L 6.96875 -0.9375 L 1.859375 -0.9375 L 1.859375 0 L 19 0 C 21.707031 0 24.1875 -0.472656 26.4375 -1.421875 C 28.6875 -2.367188 30.601562 -3.710938 32.1875 -5.453125 C 33.78125 -7.203125 35.007812 -9.304688 35.875 -11.765625 C 36.75 -14.222656 37.1875 -16.960938 37.1875 -19.984375 C 37.1875 -22.816406 36.738281 -25.40625 35.84375 -27.75 C 34.957031 -30.09375 33.707031 -32.101562 32.09375 -33.78125 C 30.488281 -35.46875 28.570312 -36.765625 26.34375 -37.671875 C 24.125 -38.585938 21.675781 -39.046875 19 -39.046875 Z M 30.796875 -21.4375 L 30.796875 -18.53125 C 30.796875 -15.082031 30.472656 -12.222656 29.828125 -9.953125 C 29.191406 -7.691406 28.332031 -5.894531 27.25 -4.5625 C 26.164062 -3.226562 24.90625 -2.289062 23.46875 -1.75 C 22.039062 -1.207031 20.515625 -0.9375 18.890625 -0.9375 L 12.609375 -0.9375 L 12.609375 -38.125 L 18.890625 -38.125 C 20.472656 -38.125 21.976562 -37.84375 23.40625 -37.28125 C 24.84375 -36.71875 26.113281 -35.785156 27.21875 -34.484375 C 28.320312 -33.191406 29.191406 -31.476562 29.828125 -29.34375 C 30.472656 -27.21875 30.796875 -24.582031 30.796875 -21.4375 Z M 30.796875 -21.4375 "/></g></g></g><g fill="#000000" fill-opacity="1"><g transform="translate(74.317321, 161.403378)"><g><path d="M 16.328125 -39.046875 L 0.640625 -39.046875 L 0.640625 -38.125 L 5.640625 -38.125 L 18.71875 0.578125 L 19.75 0.578125 L 32.1875 -38.125 L 36.375 -38.125 L 36.375 -39.046875 L 25.96875 -39.046875 L 25.96875 -38.125 L 30.96875 -38.125 L 21.328125 -8.078125 L 11.09375 -38.125 L 16.328125 -38.125 Z M 16.328125 -39.046875 "/></g></g></g><g fill="#000000" fill-opacity="1"><g transform="translate(109.761858, 161.403378)"><g><path d="M 20.34375 1.109375 C 22.820312 1.109375 25.15625 0.535156 27.34375 -0.609375 C 29.53125 -1.753906 31.4375 -3.273438 33.0625 -5.171875 C 34.6875 -7.066406 35.972656 -9.242188 36.921875 -11.703125 C 37.878906 -14.171875 38.359375 -16.71875 38.359375 -19.34375 C 38.359375 -21.976562 37.878906 -24.523438 36.921875 -26.984375 C 35.972656 -29.453125 34.6875 -31.625 33.0625 -33.5 C 31.4375 -35.375 29.53125 -36.875 27.34375 -38 C 25.15625 -39.125 22.820312 -39.6875 20.34375 -39.6875 C 17.863281 -39.6875 15.523438 -39.125 13.328125 -38 C 11.140625 -36.875 9.234375 -35.375 7.609375 -33.5 C 5.984375 -31.625 4.695312 -29.453125 3.75 -26.984375 C 2.800781 -24.523438 2.328125 -21.976562 2.328125 -19.34375 C 2.328125 -16.71875 2.800781 -14.171875 3.75 -11.703125 C 4.695312 -9.242188 5.984375 -7.066406 7.609375 -5.171875 C 9.234375 -3.273438 11.140625 -1.753906 13.328125 -0.609375 C 15.523438 0.535156 17.863281 1.109375 20.34375 1.109375 Z M 20.34375 -38.640625 C 22.082031 -38.640625 23.628906 -38.367188 24.984375 -37.828125 C 26.335938 -37.285156 27.46875 -36.375 28.375 -35.09375 C 29.289062 -33.820312 29.988281 -32.140625 30.46875 -30.046875 C 30.957031 -27.953125 31.203125 -25.351562 31.203125 -22.25 L 31.203125 -16.4375 C 31.203125 -10.820312 30.269531 -6.664062 28.40625 -3.96875 C 26.550781 -1.28125 23.863281 0.0625 20.34375 0.0625 C 16.8125 0.0625 14.113281 -1.28125 12.25 -3.96875 C 10.394531 -6.664062 9.46875 -10.820312 9.46875 -16.4375 L 9.46875 -22.25 C 9.46875 -25.269531 9.707031 -27.816406 10.1875 -29.890625 C 10.675781 -31.960938 11.375 -33.648438 12.28125 -34.953125 C 13.195312 -36.253906 14.332031 -37.191406 15.6875 -37.765625 C 17.039062 -38.347656 18.59375 -38.640625 20.34375 -38.640625 Z M 20.34375 -38.640625 "/></g></g></g><g fill="#000000" fill-opacity="1"><g transform="translate(148.634641, 161.403378)"><g><path d="M 16.90625 -38.125 L 16.90625 -39.046875 L 1.96875 -39.046875 L 1.96875 -38.125 L 6.625 -38.125 L 6.625 -0.9375 L 1.96875 -0.9375 L 1.96875 0 L 16.90625 0 L 16.90625 -0.9375 L 12.265625 -0.9375 L 12.265625 -38.125 Z M 29.40625 -38.125 L 12.671875 -21.390625 L 27.015625 -0.9375 L 21.96875 -0.9375 L 21.96875 0 L 38.40625 0 L 38.40625 -0.9375 L 33.765625 -0.9375 L 17.3125 -24.515625 L 30.921875 -38.125 L 35.859375 -38.125 L 35.859375 -39.046875 L 24.40625 -39.046875 L 24.40625 -38.125 Z M 29.40625 -38.125 "/></g></g></g><g fill="#000000" fill-opacity="1"><g transform="translate(186.403418, 161.403378)"><g><path d="M 1.28125 -0.9375 L 1.28125 0 L 14.171875 0 L 14.171875 -0.9375 L 7.328125 -0.9375 L 10.984375 -12.140625 L 22.65625 -12.140625 L 26.4375 -0.9375 L 20.453125 -0.9375 L 20.453125 0 L 37.484375 0 L 37.484375 -0.9375 L 32.421875 -0.9375 L 19.703125 -39.578125 L 19 -39.578125 L 6.28125 -0.9375 Z M 16.796875 -29.6875 L 22.375 -13.078125 L 11.328125 -13.078125 Z M 16.796875 -29.6875 "/></g></g></g><g fill="#000000" fill-opacity="1"><g transform="translate(223.533032, 161.403378)"><g><path d="M 20.984375 -0.9375 L 20.984375 -38.125 L 25.96875 -38.125 C 27.75 -38.125 29.304688 -37.210938 30.640625 -35.390625 C 31.984375 -33.566406 32.867188 -31.085938 33.296875 -27.953125 L 34.515625 -27.953125 L 33.640625 -38.0625 C 33.609375 -38.71875 33.222656 -39.046875 32.484375 -39.046875 L 3.828125 -39.046875 C 3.097656 -39.046875 2.710938 -38.71875 2.671875 -38.0625 L 1.796875 -27.953125 L 3.015625 -27.953125 C 3.441406 -31.085938 4.320312 -33.566406 5.65625 -35.390625 C 7 -37.210938 8.5625 -38.125 10.34375 -38.125 L 15.34375 -38.125 L 15.34375 -0.9375 L 10.34375 -0.9375 L 10.34375 0 L 25.96875 0 L 25.96875 -0.9375 Z M 20.984375 -0.9375 "/></g></g></g><g fill="#000000" fill-opacity="1"><g transform="translate(258.222182, 161.403378)"><g><path d="M 30.5 -29.984375 C 30.5 -31.421875 30.171875 -32.707031 29.515625 -33.84375 C 28.859375 -34.988281 27.976562 -35.9375 26.875 -36.6875 C 25.769531 -37.445312 24.5 -38.03125 23.0625 -38.4375 C 21.632812 -38.84375 20.144531 -39.046875 18.59375 -39.046875 L 1.6875 -39.046875 L 1.6875 -38.125 L 6.6875 -38.125 L 6.6875 -0.9375 L 1.6875 -0.9375 L 1.6875 0 L 19.0625 0 C 23.09375 0 26.21875 -0.925781 28.4375 -2.78125 C 30.664062 -4.644531 31.78125 -7.222656 31.78125 -10.515625 C 31.78125 -12.222656 31.441406 -13.710938 30.765625 -14.984375 C 30.085938 -16.265625 29.242188 -17.347656 28.234375 -18.234375 C 27.234375 -19.128906 26.117188 -19.816406 24.890625 -20.296875 C 23.671875 -20.785156 22.539062 -21.085938 21.5 -21.203125 C 22.78125 -21.441406 23.972656 -21.78125 25.078125 -22.21875 C 26.179688 -22.664062 27.128906 -23.25 27.921875 -23.96875 C 28.710938 -24.6875 29.335938 -25.539062 29.796875 -26.53125 C 30.265625 -27.519531 30.5 -28.671875 30.5 -29.984375 Z M 12.3125 -21.5625 L 12.3125 -38.125 L 18.59375 -38.125 C 19.5625 -38.125 20.429688 -37.992188 21.203125 -37.734375 C 21.984375 -37.484375 22.644531 -37.054688 23.1875 -36.453125 C 23.726562 -35.859375 24.148438 -35.066406 24.453125 -34.078125 C 24.765625 -33.085938 24.921875 -31.878906 24.921875 -30.453125 L 24.921875 -29.515625 C 24.921875 -27.960938 24.765625 -26.671875 24.453125 -25.640625 C 24.148438 -24.617188 23.726562 -23.804688 23.1875 -23.203125 C 22.644531 -22.609375 21.972656 -22.1875 21.171875 -21.9375 C 20.378906 -21.6875 19.519531 -21.5625 18.59375 -21.5625 Z M 12.3125 -0.9375 L 12.3125 -20.625 L 18.59375 -20.625 C 21.269531 -20.625 23.175781 -19.8125 24.3125 -18.1875 C 25.457031 -16.5625 26.03125 -14.238281 26.03125 -11.21875 L 26.03125 -9.828125 C 26.03125 -6.992188 25.488281 -4.800781 24.40625 -3.25 C 23.320312 -1.707031 21.382812 -0.9375 18.59375 -0.9375 Z M 12.3125 -0.9375 "/></g></g></g><g fill="#000000" fill-opacity="1"><g transform="translate(291.691105, 161.403378)"><g><path d="M 18.078125 -39.046875 L 1.859375 -39.046875 L 1.859375 -38.125 L 6.515625 -38.125 L 17.78125 -19.171875 L 17.78125 -0.9375 L 12.203125 -0.9375 L 12.203125 0 L 29 0 L 29 -0.9375 L 23.421875 -0.9375 L 23.421875 -20.6875 L 33 -38.125 L 37.71875 -38.125 L 37.71875 -39.046875 L 25.859375 -39.046875 L 25.859375 -38.125 L 31.5 -38.125 L 22.484375 -21.734375 L 12.71875 -38.125 L 18.078125 -38.125 Z M 18.078125 -39.046875 "/></g></g></g><g fill="#000000" fill-opacity="1"><g transform="translate(328.87883, 161.403378)"><g><path d="M 30.6875 -2.5 C 30.5625 -2.882812 30.46875 -3.425781 30.40625 -4.125 C 30.351562 -4.820312 30.316406 -5.578125 30.296875 -6.390625 C 30.285156 -7.203125 30.269531 -8.035156 30.25 -8.890625 C 30.226562 -9.742188 30.160156 -10.554688 30.046875 -11.328125 C 29.804688 -12.878906 29.414062 -14.15625 28.875 -15.15625 C 28.332031 -16.164062 27.675781 -16.988281 26.90625 -17.625 C 26.132812 -18.269531 25.242188 -18.773438 24.234375 -19.140625 C 23.222656 -19.515625 22.140625 -19.851562 20.984375 -20.15625 C 24.003906 -20.707031 26.328125 -21.785156 27.953125 -23.390625 C 29.578125 -24.992188 30.390625 -27.019531 30.390625 -29.46875 C 30.390625 -30.976562 30.066406 -32.332031 29.421875 -33.53125 C 28.785156 -34.726562 27.925781 -35.734375 26.84375 -36.546875 C 25.757812 -37.359375 24.472656 -37.976562 22.984375 -38.40625 C 21.492188 -38.832031 19.914062 -39.046875 18.25 -39.046875 L 1.859375 -39.046875 L 1.859375 -38.125 L 6.859375 -38.125 L 6.859375 -0.9375 L 1.859375 -0.9375 L 1.859375 0 L 17.484375 0 L 17.484375 -0.9375 L 12.5 -0.9375 L 12.5 -19.9375 L 17.3125 -19.9375 C 17.9375 -19.9375 18.597656 -19.828125 19.296875 -19.609375 C 19.992188 -19.398438 20.640625 -18.992188 21.234375 -18.390625 C 21.835938 -17.785156 22.359375 -16.953125 22.796875 -15.890625 C 23.242188 -14.828125 23.566406 -13.460938 23.765625 -11.796875 C 23.878906 -10.785156 23.945312 -9.753906 23.96875 -8.703125 C 23.988281 -7.660156 24.046875 -6.65625 24.140625 -5.6875 C 24.242188 -4.71875 24.421875 -3.828125 24.671875 -3.015625 C 24.921875 -2.203125 25.316406 -1.507812 25.859375 -0.9375 C 26.359375 -0.382812 26.945312 -0.015625 27.625 0.171875 C 28.300781 0.367188 29.03125 0.46875 29.8125 0.46875 C 30.46875 0.46875 31.125 0.398438 31.78125 0.265625 C 32.445312 0.128906 33.054688 -0.03125 33.609375 -0.21875 C 34.171875 -0.414062 34.65625 -0.617188 35.0625 -0.828125 C 35.46875 -1.046875 35.769531 -1.253906 35.96875 -1.453125 C 36.082031 -1.566406 36.140625 -1.679688 36.140625 -1.796875 C 36.140625 -1.910156 36.082031 -1.96875 35.96875 -1.96875 C 35.894531 -1.96875 35.78125 -1.929688 35.625 -1.859375 C 34.84375 -1.316406 33.96875 -1.046875 33 -1.046875 C 31.800781 -1.046875 31.03125 -1.53125 30.6875 -2.5 Z M 12.5 -20.859375 L 12.5 -38.125 L 18.25 -38.125 C 22.664062 -38.125 24.875 -35.582031 24.875 -30.5 L 24.875 -28.421875 C 24.875 -23.378906 22.664062 -20.859375 18.25 -20.859375 Z M 12.5 -20.859375 "/></g></g></g><g fill="#000000" fill-opacity="1"><g transform="translate(364.090933, 161.403378)"><g><path d="M 23.53125 -46.375 C 23.53125 -47.570312 23.101562 -48.597656 22.25 -49.453125 C 21.40625 -50.304688 20.378906 -50.734375 19.171875 -50.734375 C 17.972656 -50.734375 16.945312 -50.304688 16.09375 -49.453125 C 15.238281 -48.597656 14.8125 -47.570312 14.8125 -46.375 C 14.8125 -45.164062 15.238281 -44.132812 16.09375 -43.28125 C 16.945312 -42.4375 17.972656 -42.015625 19.171875 -42.015625 C 20.378906 -42.015625 21.40625 -42.4375 22.25 -43.28125 C 23.101562 -44.132812 23.53125 -45.164062 23.53125 -46.375 Z M 15.75 -46.375 C 15.75 -47.34375 16.078125 -48.15625 16.734375 -48.8125 C 17.390625 -49.46875 18.203125 -49.796875 19.171875 -49.796875 C 20.140625 -49.796875 20.953125 -49.46875 21.609375 -48.8125 C 22.273438 -48.15625 22.609375 -47.34375 22.609375 -46.375 C 22.609375 -45.40625 22.273438 -44.585938 21.609375 -43.921875 C 20.953125 -43.265625 20.140625 -42.9375 19.171875 -42.9375 C 18.203125 -42.9375 17.390625 -43.265625 16.734375 -43.921875 C 16.078125 -44.585938 15.75 -45.40625 15.75 -46.375 Z M 1.28125 -0.9375 L 1.28125 0 L 14.171875 0 L 14.171875 -0.9375 L 7.328125 -0.9375 L 10.984375 -12.140625 L 22.65625 -12.140625 L 26.4375 -0.9375 L 20.453125 -0.9375 L 20.453125 0 L 37.484375 0 L 37.484375 -0.9375 L 32.421875 -0.9375 L 19.703125 -39.578125 L 19 -39.578125 L 6.28125 -0.9375 Z M 16.796875 -29.6875 L 22.375 -13.078125 L 11.328125 -13.078125 Z M 16.796875 -29.6875 "/></g></g></g><g fill="#000000" fill-opacity="1"><g transform="translate(401.220536, 161.403378)"><g/></g></g><g fill="#000000" fill-opacity="1"><g transform="translate(415.572572, 161.403378)"><g><path d="M 1.28125 -0.9375 L 1.28125 0 L 14.171875 0 L 14.171875 -0.9375 L 7.328125 -0.9375 L 10.984375 -12.140625 L 22.65625 -12.140625 L 26.4375 -0.9375 L 20.453125 -0.9375 L 20.453125 0 L 37.484375 0 L 37.484375 -0.9375 L 32.421875 -0.9375 L 19.703125 -39.578125 L 19 -39.578125 L 6.28125 -0.9375 Z M 16.796875 -29.6875 L 22.375 -13.078125 L 11.328125 -13.078125 Z M 16.796875 -29.6875 "/></g></g></g><g fill="#000000" fill-opacity="1"><g transform="translate(452.702198, 161.403378)"><g><path d="M 30.5 -29.984375 C 30.5 -31.421875 30.171875 -32.707031 29.515625 -33.84375 C 28.859375 -34.988281 27.976562 -35.9375 26.875 -36.6875 C 25.769531 -37.445312 24.5 -38.03125 23.0625 -38.4375 C 21.632812 -38.84375 20.144531 -39.046875 18.59375 -39.046875 L 1.6875 -39.046875 L 1.6875 -38.125 L 6.6875 -38.125 L 6.6875 -0.9375 L 1.6875 -0.9375 L 1.6875 0 L 19.0625 0 C 23.09375 0 26.21875 -0.925781 28.4375 -2.78125 C 30.664062 -4.644531 31.78125 -7.222656 31.78125 -10.515625 C 31.78125 -12.222656 31.441406 -13.710938 30.765625 -14.984375 C 30.085938 -16.265625 29.242188 -17.347656 28.234375 -18.234375 C 27.234375 -19.128906 26.117188 -19.816406 24.890625 -20.296875 C 23.671875 -20.785156 22.539062 -21.085938 21.5 -21.203125 C 22.78125 -21.441406 23.972656 -21.78125 25.078125 -22.21875 C 26.179688 -22.664062 27.128906 -23.25 27.921875 -23.96875 C 28.710938 -24.6875 29.335938 -25.539062 29.796875 -26.53125 C 30.265625 -27.519531 30.5 -28.671875 30.5 -29.984375 Z M 12.3125 -21.5625 L 12.3125 -38.125 L 18.59375 -38.125 C 19.5625 -38.125 20.429688 -37.992188 21.203125 -37.734375 C 21.984375 -37.484375 22.644531 -37.054688 23.1875 -36.453125 C 23.726562 -35.859375 24.148438 -35.066406 24.453125 -34.078125 C 24.765625 -33.085938 24.921875 -31.878906 24.921875 -30.453125 L 24.921875 -29.515625 C 24.921875 -27.960938 24.765625 -26.671875 24.453125 -25.640625 C 24.148438 -24.617188 23.726562 -23.804688 23.1875 -23.203125 C 22.644531 -22.609375 21.972656 -22.1875 21.171875 -21.9375 C 20.378906 -21.6875 19.519531 -21.5625 18.59375 -21.5625 Z M 12.3125 -0.9375 L 12.3125 -20.625 L 18.59375 -20.625 C 21.269531 -20.625 23.175781 -19.8125 24.3125 -18.1875 C 25.457031 -16.5625 26.03125 -14.238281 26.03125 -11.21875 L 26.03125 -9.828125 C 26.03125 -6.992188 25.488281 -4.800781 24.40625 -3.25 C 23.320312 -1.707031 21.382812 -0.9375 18.59375 -0.9375 Z M 12.3125 -0.9375 "/></g></g></g></svg>