<svg xmlns="http://www.w3.org/2000/svg" xmlns:xlink="http://www.w3.org/1999/xlink" width="150" zoomAndPan="magnify" viewBox="0 0 112.5 74.999997" height="100" preserveAspectRatio="xMidYMid meet" version="1.0"><defs><g/></defs><g fill="#000000" fill-opacity="1"><g transform="translate(4.629425, 17.171313)"><g><path d="M 14.359375 -7.46875 C 14.359375 -6.40625 14.179688 -5.40625 13.828125 -4.46875 C 13.472656 -3.53125 12.992188 -2.703125 12.390625 -1.984375 C 11.785156 -1.265625 11.078125 -0.695312 10.265625 -0.28125 C 9.453125 0.132812 8.582031 0.34375 7.65625 0.34375 C 6.738281 0.34375 5.875 0.132812 5.0625 -0.28125 C 4.25 -0.695312 3.535156 -1.265625 2.921875 -1.984375 C 2.316406 -2.703125 1.835938 -3.53125 1.484375 -4.46875 C 1.128906 -5.40625 0.953125 -6.40625 0.953125 -7.46875 C 0.953125 -8.53125 1.128906 -9.535156 1.484375 -10.484375 C 1.835938 -11.429688 2.316406 -12.257812 2.921875 -12.96875 C 3.535156 -13.675781 4.25 -14.238281 5.0625 -14.65625 C 5.875 -15.070312 6.738281 -15.28125 7.65625 -15.28125 C 8.582031 -15.28125 9.453125 -15.070312 10.265625 -14.65625 C 11.078125 -14.238281 11.785156 -13.675781 12.390625 -12.96875 C 12.992188 -12.257812 13.472656 -11.429688 13.828125 -10.484375 C 14.179688 -9.535156 14.359375 -8.53125 14.359375 -7.46875 Z M 7.65625 0 C 9.0625 0 10.128906 -0.628906 10.859375 -1.890625 C 11.585938 -3.148438 11.953125 -5.007812 11.953125 -7.46875 C 11.953125 -9.925781 11.585938 -11.785156 10.859375 -13.046875 C 10.128906 -14.304688 9.054688 -14.9375 7.640625 -14.9375 C 6.304688 -14.9375 5.257812 -14.328125 4.5 -13.109375 C 3.75 -11.890625 3.375 -10.007812 3.375 -7.46875 C 3.375 -5.007812 3.738281 -3.148438 4.46875 -1.890625 C 5.195312 -0.628906 6.257812 0 7.65625 0 Z M 7.65625 0 "/></g></g></g><g fill="#000000" fill-opacity="1"><g transform="translate(19.478142, 17.171313)"><g><path d="M 6.953125 -14.9375 C 8.140625 -14.9375 9.179688 -14.722656 10.078125 -14.296875 C 10.972656 -13.878906 11.71875 -13.316406 12.3125 -12.609375 C 12.90625 -11.910156 13.347656 -11.113281 13.640625 -10.21875 C 13.941406 -9.320312 14.09375 -8.398438 14.09375 -7.453125 C 14.09375 -6.265625 13.910156 -5.207031 13.546875 -4.28125 C 13.179688 -3.363281 12.679688 -2.585938 12.046875 -1.953125 C 11.410156 -1.316406 10.660156 -0.832031 9.796875 -0.5 C 8.941406 -0.164062 8.003906 0 6.984375 0 L 0.21875 0 L 0.21875 -0.34375 L 2.234375 -0.34375 L 2.234375 -14.59375 L 0.21875 -14.59375 L 0.21875 -14.9375 Z M 6.234375 -0.34375 C 7.953125 -0.34375 9.285156 -0.925781 10.234375 -2.09375 C 11.191406 -3.269531 11.671875 -5.0625 11.671875 -7.46875 C 11.671875 -9.925781 11.15625 -11.726562 10.125 -12.875 C 9.101562 -14.019531 7.550781 -14.59375 5.46875 -14.59375 L 4.390625 -14.59375 L 4.390625 -0.34375 Z M 6.234375 -0.34375 "/></g></g></g><g fill="#000000" fill-opacity="1"><g transform="translate(34.32686, 17.171313)"><g><path d="M 11.671875 -14.9375 L 11.921875 -11.328125 L 11.578125 -11.328125 C 11.578125 -12.460938 11.242188 -13.289062 10.578125 -13.8125 C 9.921875 -14.332031 8.988281 -14.59375 7.78125 -14.59375 L 4.390625 -14.59375 L 4.390625 -7.765625 L 6 -7.765625 C 6.738281 -7.765625 7.320312 -7.941406 7.75 -8.296875 C 8.1875 -8.648438 8.40625 -9.316406 8.40625 -10.296875 L 8.40625 -10.484375 L 8.734375 -10.484375 L 8.734375 -4.84375 L 8.40625 -4.84375 L 8.40625 -5.171875 C 8.40625 -5.640625 8.347656 -6.019531 8.234375 -6.3125 C 8.117188 -6.601562 7.953125 -6.832031 7.734375 -7 C 7.523438 -7.164062 7.269531 -7.273438 6.96875 -7.328125 C 6.664062 -7.390625 6.316406 -7.421875 5.921875 -7.421875 L 4.390625 -7.421875 L 4.390625 -0.34375 L 7.46875 -0.34375 C 7.976562 -0.34375 8.425781 -0.351562 8.8125 -0.375 C 9.207031 -0.40625 9.550781 -0.445312 9.84375 -0.5 C 10.144531 -0.5625 10.40625 -0.640625 10.625 -0.734375 C 10.84375 -0.828125 11.039062 -0.9375 11.21875 -1.0625 C 11.675781 -1.375 11.984375 -1.800781 12.140625 -2.34375 C 12.296875 -2.882812 12.378906 -3.550781 12.390625 -4.34375 L 12.734375 -4.34375 L 12.734375 0 L 0.359375 0 L 0.359375 -0.34375 L 2.234375 -0.34375 L 2.234375 -14.59375 L 0.359375 -14.59375 L 0.359375 -14.9375 Z M 11.671875 -14.9375 "/></g></g></g><g fill="#000000" fill-opacity="1"><g transform="translate(48.008895, 17.171313)"><g><path d="M 6.578125 -14.9375 L 6.578125 -14.59375 L 4.515625 -14.59375 L 8.421875 -2.984375 L 8.46875 -2.984375 L 11.484375 -11.453125 C 11.703125 -12.109375 11.878906 -12.613281 12.015625 -12.96875 C 12.148438 -13.332031 12.21875 -13.609375 12.21875 -13.796875 C 12.21875 -14.148438 12.066406 -14.367188 11.765625 -14.453125 C 11.472656 -14.546875 10.992188 -14.59375 10.328125 -14.59375 L 10.328125 -14.9375 L 14.953125 -14.9375 L 14.953125 -14.59375 L 14.46875 -14.59375 C 14.15625 -14.59375 13.925781 -14.570312 13.78125 -14.53125 C 13.632812 -14.488281 13.488281 -14.429688 13.34375 -14.359375 C 13.1875 -14.273438 13.035156 -14.140625 12.890625 -13.953125 C 12.753906 -13.765625 12.625 -13.492188 12.5 -13.140625 L 7.578125 0.515625 L 7.359375 0.515625 L 2.078125 -14.59375 L 0.359375 -14.59375 L 0.359375 -14.9375 Z M 6.578125 -14.9375 "/></g></g></g><g fill="#000000" fill-opacity="1"><g transform="translate(62.857613, 17.171313)"><g><path d="M 6.796875 -15.28125 L 7.015625 -15.28125 L 12.171875 -0.34375 L 13.9375 -0.34375 L 13.9375 0 L 7.71875 0 L 7.71875 -0.34375 L 9.796875 -0.34375 L 8.28125 -4.84375 L 3.734375 -4.84375 C 3.453125 -3.976562 3.234375 -3.300781 3.078125 -2.8125 C 2.921875 -2.320312 2.800781 -1.945312 2.71875 -1.6875 C 2.644531 -1.4375 2.597656 -1.257812 2.578125 -1.15625 C 2.554688 -1.0625 2.546875 -0.96875 2.546875 -0.875 C 2.546875 -0.519531 2.878906 -0.34375 3.546875 -0.34375 L 4.578125 -0.34375 L 4.578125 0 L 0.21875 0 L 0.21875 -0.34375 L 0.96875 -0.34375 C 1.363281 -0.34375 1.632812 -0.445312 1.78125 -0.65625 C 1.9375 -0.863281 2.097656 -1.21875 2.265625 -1.71875 Z M 5.9375 -11.609375 L 3.859375 -5.171875 L 8.171875 -5.171875 L 5.984375 -11.609375 Z M 5.9375 -11.609375 "/></g></g></g><g fill="#000000" fill-opacity="1"><g transform="translate(76.539649, 17.171313)"><g><path d="M 6.9375 -14.9375 L 6.9375 -14.59375 L 4.8125 -14.59375 L 4.8125 -0.34375 L 7.65625 -0.34375 C 8.3125 -0.34375 8.867188 -0.363281 9.328125 -0.40625 C 9.785156 -0.445312 10.179688 -0.503906 10.515625 -0.578125 C 10.847656 -0.660156 11.117188 -0.757812 11.328125 -0.875 C 11.546875 -1 11.726562 -1.140625 11.875 -1.296875 C 12.207031 -1.617188 12.445312 -2.054688 12.59375 -2.609375 C 12.738281 -3.160156 12.8125 -3.914062 12.8125 -4.875 L 13.15625 -4.875 L 13.15625 0 L 0.53125 0 L 0.53125 -0.34375 L 2.65625 -0.34375 L 2.65625 -14.59375 L 0.53125 -14.59375 L 0.53125 -14.9375 Z M 6.9375 -14.9375 "/></g></g></g><g fill="#000000" fill-opacity="1"><g transform="translate(90.221684, 17.171313)"><g><path d="M 6.9375 -14.9375 L 6.9375 -14.59375 L 4.8125 -14.59375 L 4.8125 -0.34375 L 7.65625 -0.34375 C 8.3125 -0.34375 8.867188 -0.363281 9.328125 -0.40625 C 9.785156 -0.445312 10.179688 -0.503906 10.515625 -0.578125 C 10.847656 -0.660156 11.117188 -0.757812 11.328125 -0.875 C 11.546875 -1 11.726562 -1.140625 11.875 -1.296875 C 12.207031 -1.617188 12.445312 -2.054688 12.59375 -2.609375 C 12.738281 -3.160156 12.8125 -3.914062 12.8125 -4.875 L 13.15625 -4.875 L 13.15625 0 L 0.53125 0 L 0.53125 -0.34375 L 2.65625 -0.34375 L 2.65625 -14.59375 L 0.53125 -14.59375 L 0.53125 -14.9375 Z M 6.9375 -14.9375 "/></g></g></g><g fill="#000000" fill-opacity="1"><g transform="translate(103.91128, 17.171313)"><g/></g></g><g fill="#000000" fill-opacity="1"><g transform="translate(4.629425, 41.919273)"><g><path d="M 6.796875 -15.28125 L 7.015625 -15.28125 L 12.171875 -0.34375 L 13.9375 -0.34375 L 13.9375 0 L 7.71875 0 L 7.71875 -0.34375 L 9.796875 -0.34375 L 8.28125 -4.84375 L 3.734375 -4.84375 C 3.453125 -3.976562 3.234375 -3.300781 3.078125 -2.8125 C 2.921875 -2.320312 2.800781 -1.945312 2.71875 -1.6875 C 2.644531 -1.4375 2.597656 -1.257812 2.578125 -1.15625 C 2.554688 -1.0625 2.546875 -0.96875 2.546875 -0.875 C 2.546875 -0.519531 2.878906 -0.34375 3.546875 -0.34375 L 4.578125 -0.34375 L 4.578125 0 L 0.21875 0 L 0.21875 -0.34375 L 0.96875 -0.34375 C 1.363281 -0.34375 1.632812 -0.445312 1.78125 -0.65625 C 1.9375 -0.863281 2.097656 -1.21875 2.265625 -1.71875 Z M 5.9375 -11.609375 L 3.859375 -5.171875 L 8.171875 -5.171875 L 5.984375 -11.609375 Z M 5.9375 -11.609375 "/></g></g></g><g fill="#000000" fill-opacity="1"><g transform="translate(18.311461, 41.919273)"><g><path d="M 6.953125 -14.9375 C 8.140625 -14.9375 9.179688 -14.722656 10.078125 -14.296875 C 10.972656 -13.878906 11.71875 -13.316406 12.3125 -12.609375 C 12.90625 -11.910156 13.347656 -11.113281 13.640625 -10.21875 C 13.941406 -9.320312 14.09375 -8.398438 14.09375 -7.453125 C 14.09375 -6.265625 13.910156 -5.207031 13.546875 -4.28125 C 13.179688 -3.363281 12.679688 -2.585938 12.046875 -1.953125 C 11.410156 -1.316406 10.660156 -0.832031 9.796875 -0.5 C 8.941406 -0.164062 8.003906 0 6.984375 0 L 0.21875 0 L 0.21875 -0.34375 L 2.234375 -0.34375 L 2.234375 -14.59375 L 0.21875 -14.59375 L 0.21875 -14.9375 Z M 6.234375 -0.34375 C 7.953125 -0.34375 9.285156 -0.925781 10.234375 -2.09375 C 11.191406 -3.269531 11.671875 -5.0625 11.671875 -7.46875 C 11.671875 -9.925781 11.15625 -11.726562 10.125 -12.875 C 9.101562 -14.019531 7.550781 -14.59375 5.46875 -14.59375 L 4.390625 -14.59375 L 4.390625 -0.34375 Z M 6.234375 -0.34375 "/></g></g></g><g fill="#000000" fill-opacity="1"><g transform="translate(33.160179, 41.919273)"><g><path d="M 6.578125 -14.9375 L 6.578125 -14.59375 L 4.515625 -14.59375 L 8.421875 -2.984375 L 8.46875 -2.984375 L 11.484375 -11.453125 C 11.703125 -12.109375 11.878906 -12.613281 12.015625 -12.96875 C 12.148438 -13.332031 12.21875 -13.609375 12.21875 -13.796875 C 12.21875 -14.148438 12.066406 -14.367188 11.765625 -14.453125 C 11.472656 -14.546875 10.992188 -14.59375 10.328125 -14.59375 L 10.328125 -14.9375 L 14.953125 -14.9375 L 14.953125 -14.59375 L 14.46875 -14.59375 C 14.15625 -14.59375 13.925781 -14.570312 13.78125 -14.53125 C 13.632812 -14.488281 13.488281 -14.429688 13.34375 -14.359375 C 13.1875 -14.273438 13.035156 -14.140625 12.890625 -13.953125 C 12.753906 -13.765625 12.625 -13.492188 12.5 -13.140625 L 7.578125 0.515625 L 7.359375 0.515625 L 2.078125 -14.59375 L 0.359375 -14.59375 L 0.359375 -14.9375 Z M 6.578125 -14.9375 "/></g></g></g><g fill="#000000" fill-opacity="1"><g transform="translate(48.008896, 41.919273)"><g><path d="M 14.359375 -7.46875 C 14.359375 -6.40625 14.179688 -5.40625 13.828125 -4.46875 C 13.472656 -3.53125 12.992188 -2.703125 12.390625 -1.984375 C 11.785156 -1.265625 11.078125 -0.695312 10.265625 -0.28125 C 9.453125 0.132812 8.582031 0.34375 7.65625 0.34375 C 6.738281 0.34375 5.875 0.132812 5.0625 -0.28125 C 4.25 -0.695312 3.535156 -1.265625 2.921875 -1.984375 C 2.316406 -2.703125 1.835938 -3.53125 1.484375 -4.46875 C 1.128906 -5.40625 0.953125 -6.40625 0.953125 -7.46875 C 0.953125 -8.53125 1.128906 -9.535156 1.484375 -10.484375 C 1.835938 -11.429688 2.316406 -12.257812 2.921875 -12.96875 C 3.535156 -13.675781 4.25 -14.238281 5.0625 -14.65625 C 5.875 -15.070312 6.738281 -15.28125 7.65625 -15.28125 C 8.582031 -15.28125 9.453125 -15.070312 10.265625 -14.65625 C 11.078125 -14.238281 11.785156 -13.675781 12.390625 -12.96875 C 12.992188 -12.257812 13.472656 -11.429688 13.828125 -10.484375 C 14.179688 -9.535156 14.359375 -8.53125 14.359375 -7.46875 Z M 7.65625 0 C 9.0625 0 10.128906 -0.628906 10.859375 -1.890625 C 11.585938 -3.148438 11.953125 -5.007812 11.953125 -7.46875 C 11.953125 -9.925781 11.585938 -11.785156 10.859375 -13.046875 C 10.128906 -14.304688 9.054688 -14.9375 7.640625 -14.9375 C 6.304688 -14.9375 5.257812 -14.328125 4.5 -13.109375 C 3.75 -11.890625 3.375 -10.007812 3.375 -7.46875 C 3.375 -5.007812 3.738281 -3.148438 4.46875 -1.890625 C 5.195312 -0.628906 6.257812 0 7.65625 0 Z M 7.65625 0 "/></g></g></g><g fill="#000000" fill-opacity="1"><g transform="translate(62.857614, 41.919273)"><g><path d="M 6.765625 -14.9375 L 6.765625 -14.59375 L 4.625 -14.59375 L 4.625 -7.640625 L 8.640625 -11.5 C 10.148438 -12.957031 10.90625 -13.84375 10.90625 -14.15625 C 10.90625 -14.445312 10.644531 -14.59375 10.125 -14.59375 L 8.84375 -14.59375 L 8.84375 -14.9375 L 14.40625 -14.9375 L 14.40625 -14.59375 L 13.828125 -14.59375 C 13.585938 -14.59375 13.363281 -14.578125 13.15625 -14.546875 C 12.957031 -14.515625 12.753906 -14.441406 12.546875 -14.328125 C 12.285156 -14.210938 12.003906 -14.039062 11.703125 -13.8125 C 11.398438 -13.582031 11.054688 -13.285156 10.671875 -12.921875 L 6.5 -8.90625 L 12.5625 -1.171875 C 12.675781 -1.023438 12.773438 -0.898438 12.859375 -0.796875 C 12.941406 -0.691406 13.023438 -0.609375 13.109375 -0.546875 C 13.191406 -0.484375 13.289062 -0.429688 13.40625 -0.390625 C 13.519531 -0.359375 13.671875 -0.34375 13.859375 -0.34375 L 14.9375 -0.34375 L 14.9375 0 L 8.359375 0 L 8.359375 -0.34375 L 10.328125 -0.34375 L 4.90625 -7.359375 L 4.625 -7.15625 L 4.625 -0.34375 L 6.765625 -0.34375 L 6.765625 0 L 0.53125 0 L 0.53125 -0.34375 L 2.46875 -0.34375 L 2.46875 -14.59375 L 0.53125 -14.59375 L 0.53125 -14.9375 Z M 6.765625 -14.9375 "/></g></g></g><g fill="#000000" fill-opacity="1"><g transform="translate(77.706332, 41.919273)"><g><path d="M 6.796875 -15.28125 L 7.015625 -15.28125 L 12.171875 -0.34375 L 13.9375 -0.34375 L 13.9375 0 L 7.71875 0 L 7.71875 -0.34375 L 9.796875 -0.34375 L 8.28125 -4.84375 L 3.734375 -4.84375 C 3.453125 -3.976562 3.234375 -3.300781 3.078125 -2.8125 C 2.921875 -2.320312 2.800781 -1.945312 2.71875 -1.6875 C 2.644531 -1.4375 2.597656 -1.257812 2.578125 -1.15625 C 2.554688 -1.0625 2.546875 -0.96875 2.546875 -0.875 C 2.546875 -0.519531 2.878906 -0.34375 3.546875 -0.34375 L 4.578125 -0.34375 L 4.578125 0 L 0.21875 0 L 0.21875 -0.34375 L 0.96875 -0.34375 C 1.363281 -0.34375 1.632812 -0.445312 1.78125 -0.65625 C 1.9375 -0.863281 2.097656 -1.21875 2.265625 -1.71875 Z M 5.9375 -11.609375 L 3.859375 -5.171875 L 8.171875 -5.171875 L 5.984375 -11.609375 Z M 5.9375 -11.609375 "/></g></g></g><g fill="#000000" fill-opacity="1"><g transform="translate(91.388367, 41.919273)"><g><path d="M 13.578125 -14.9375 L 13.578125 -10.546875 L 13.234375 -10.546875 C 13.234375 -11.390625 13.171875 -12.078125 13.046875 -12.609375 C 12.921875 -13.140625 12.691406 -13.550781 12.359375 -13.84375 C 12.035156 -14.144531 11.582031 -14.34375 11 -14.4375 C 10.414062 -14.539062 9.671875 -14.59375 8.765625 -14.59375 L 8.171875 -14.59375 L 8.171875 -0.34375 L 10.359375 -0.34375 L 10.359375 0 L 3.8125 0 L 3.8125 -0.34375 L 6 -0.34375 L 6 -14.59375 L 5.515625 -14.59375 C 4.671875 -14.59375 3.953125 -14.550781 3.359375 -14.46875 C 2.773438 -14.394531 2.300781 -14.226562 1.9375 -13.96875 C 1.582031 -13.707031 1.328125 -13.316406 1.171875 -12.796875 C 1.015625 -12.285156 0.9375 -11.597656 0.9375 -10.734375 L 0.9375 -10.546875 L 0.59375 -10.546875 L 0.59375 -14.9375 Z M 13.578125 -14.9375 "/></g></g></g><g fill="#000000" fill-opacity="1"><g transform="translate(4.629425, 66.667233)"><g><path d="M 6.765625 -14.9375 C 7.472656 -14.9375 8.125 -14.847656 8.71875 -14.671875 C 9.3125 -14.503906 9.820312 -14.269531 10.25 -13.96875 C 10.675781 -13.675781 11.007812 -13.328125 11.25 -12.921875 C 11.488281 -12.523438 11.609375 -12.085938 11.609375 -11.609375 C 11.609375 -11.140625 11.539062 -10.695312 11.40625 -10.28125 C 11.28125 -9.863281 11.054688 -9.488281 10.734375 -9.15625 C 10.421875 -8.820312 9.988281 -8.546875 9.4375 -8.328125 C 8.882812 -8.117188 8.1875 -7.988281 7.34375 -7.9375 L 7.34375 -7.890625 C 8.820312 -7.765625 9.96875 -7.375 10.78125 -6.71875 C 11.601562 -6.0625 12.015625 -5.160156 12.015625 -4.015625 C 12.015625 -3.359375 11.882812 -2.78125 11.625 -2.28125 C 11.375 -1.78125 11.035156 -1.359375 10.609375 -1.015625 C 10.179688 -0.679688 9.695312 -0.425781 9.15625 -0.25 C 8.613281 -0.0820312 8.046875 0 7.453125 0 L 0.21875 0 L 0.21875 -0.34375 L 2.234375 -0.34375 L 2.234375 -14.59375 L 0.21875 -14.59375 L 0.21875 -14.9375 Z M 5.90625 -8.109375 C 7.195312 -8.109375 8.109375 -8.382812 8.640625 -8.9375 C 9.171875 -9.488281 9.4375 -10.304688 9.4375 -11.390625 C 9.4375 -11.785156 9.351562 -12.175781 9.1875 -12.5625 C 9.03125 -12.957031 8.789062 -13.300781 8.46875 -13.59375 C 8.144531 -13.894531 7.738281 -14.132812 7.25 -14.3125 C 6.757812 -14.5 6.1875 -14.59375 5.53125 -14.59375 L 4.390625 -14.59375 L 4.390625 -8.109375 Z M 6.265625 -0.34375 C 7.296875 -0.34375 8.109375 -0.660156 8.703125 -1.296875 C 9.296875 -1.941406 9.59375 -2.910156 9.59375 -4.203125 C 9.59375 -4.710938 9.507812 -5.1875 9.34375 -5.625 C 9.1875 -6.0625 8.941406 -6.4375 8.609375 -6.75 C 8.273438 -7.070312 7.847656 -7.320312 7.328125 -7.5 C 6.816406 -7.675781 6.210938 -7.765625 5.515625 -7.765625 L 4.390625 -7.765625 L 4.390625 -0.34375 Z M 6.265625 -0.34375 "/></g></g></g><g fill="#000000" fill-opacity="1"><g transform="translate(17.123564, 66.667233)"><g><path d="M 6.390625 -14.9375 L 6.390625 -14.59375 L 4.625 -14.59375 L 8.171875 -6.390625 L 10.796875 -12.328125 C 10.953125 -12.691406 11.082031 -13.003906 11.1875 -13.265625 C 11.300781 -13.535156 11.359375 -13.789062 11.359375 -14.03125 C 11.359375 -14.40625 11.070312 -14.59375 10.5 -14.59375 L 9.59375 -14.59375 L 9.59375 -14.9375 L 13.9375 -14.9375 L 13.9375 -14.59375 L 13.296875 -14.59375 C 13.078125 -14.59375 12.890625 -14.582031 12.734375 -14.5625 C 12.578125 -14.539062 12.4375 -14.476562 12.3125 -14.375 C 12.195312 -14.28125 12.082031 -14.132812 11.96875 -13.9375 C 11.851562 -13.738281 11.71875 -13.460938 11.5625 -13.109375 L 8.28125 -5.8125 L 8.28125 -0.34375 L 10.53125 -0.34375 L 10.53125 0 L 3.859375 0 L 3.859375 -0.34375 L 6.109375 -0.34375 L 6.109375 -5.46875 L 2.140625 -14.59375 L 0.21875 -14.59375 L 0.21875 -14.9375 Z M 6.390625 -14.9375 "/></g></g></g><g fill="#000000" fill-opacity="1"><g transform="translate(30.8056, 66.667233)"><g><path d="M 7.15625 -14.9375 C 8.820312 -14.9375 10.066406 -14.628906 10.890625 -14.015625 C 11.722656 -13.410156 12.140625 -12.46875 12.140625 -11.1875 C 12.140625 -10.207031 11.734375 -9.429688 10.921875 -8.859375 C 10.117188 -8.285156 9.007812 -7.90625 7.59375 -7.71875 L 7.59375 -7.6875 C 8.5 -7.613281 9.207031 -7.472656 9.71875 -7.265625 C 10.238281 -7.054688 10.648438 -6.742188 10.953125 -6.328125 C 11.085938 -6.128906 11.195312 -5.921875 11.28125 -5.703125 C 11.375 -5.492188 11.453125 -5.222656 11.515625 -4.890625 C 11.585938 -4.554688 11.648438 -4.140625 11.703125 -3.640625 C 11.765625 -3.140625 11.835938 -2.5 11.921875 -1.71875 C 11.960938 -1.269531 12.066406 -0.90625 12.234375 -0.625 C 12.398438 -0.351562 12.671875 -0.21875 13.046875 -0.21875 C 13.242188 -0.21875 13.398438 -0.238281 13.515625 -0.28125 C 13.640625 -0.320312 13.773438 -0.367188 13.921875 -0.421875 L 14.046875 -0.15625 C 13.765625 -0.0507812 13.5 0.0195312 13.25 0.0625 C 13 0.101562 12.71875 0.125 12.40625 0.125 C 12.070312 0.125 11.753906 0.101562 11.453125 0.0625 C 11.160156 0.0195312 10.894531 -0.0546875 10.65625 -0.171875 C 10.425781 -0.296875 10.222656 -0.460938 10.046875 -0.671875 C 9.867188 -0.890625 9.734375 -1.175781 9.640625 -1.53125 C 9.523438 -1.882812 9.441406 -2.289062 9.390625 -2.75 C 9.335938 -3.207031 9.285156 -3.660156 9.234375 -4.109375 C 9.191406 -4.566406 9.132812 -4.988281 9.0625 -5.375 C 9 -5.769531 8.90625 -6.085938 8.78125 -6.328125 C 8.625 -6.609375 8.4375 -6.828125 8.21875 -6.984375 C 8 -7.148438 7.765625 -7.269531 7.515625 -7.34375 C 7.273438 -7.425781 7.023438 -7.472656 6.765625 -7.484375 C 6.515625 -7.503906 6.289062 -7.515625 6.09375 -7.515625 L 4.8125 -7.515625 L 4.8125 -0.34375 L 6.984375 -0.34375 L 6.984375 0 L 0.53125 0 L 0.53125 -0.34375 L 2.65625 -0.34375 L 2.65625 -14.59375 L 0.53125 -14.59375 L 0.53125 -14.9375 Z M 4.8125 -7.84375 L 5.875 -7.84375 C 7.25 -7.84375 8.253906 -8.113281 8.890625 -8.65625 C 9.523438 -9.195312 9.84375 -10.039062 9.84375 -11.1875 C 9.84375 -11.820312 9.757812 -12.359375 9.59375 -12.796875 C 9.425781 -13.234375 9.1875 -13.585938 8.875 -13.859375 C 8.5625 -14.128906 8.1875 -14.316406 7.75 -14.421875 C 7.3125 -14.535156 6.820312 -14.59375 6.28125 -14.59375 L 4.8125 -14.59375 Z M 4.8125 -7.84375 "/></g></g></g><g fill="#000000" fill-opacity="1"><g transform="translate(44.487638, 66.667233)"><g><path d="M 6.796875 -15.28125 L 7.015625 -15.28125 L 12.171875 -0.34375 L 13.9375 -0.34375 L 13.9375 0 L 7.71875 0 L 7.71875 -0.34375 L 9.796875 -0.34375 L 8.28125 -4.84375 L 3.734375 -4.84375 C 3.453125 -3.976562 3.234375 -3.300781 3.078125 -2.8125 C 2.921875 -2.320312 2.800781 -1.945312 2.71875 -1.6875 C 2.644531 -1.4375 2.597656 -1.257812 2.578125 -1.15625 C 2.554688 -1.0625 2.546875 -0.96875 2.546875 -0.875 C 2.546875 -0.519531 2.878906 -0.34375 3.546875 -0.34375 L 4.578125 -0.34375 L 4.578125 0 L 0.21875 0 L 0.21875 -0.34375 L 0.96875 -0.34375 C 1.363281 -0.34375 1.632812 -0.445312 1.78125 -0.65625 C 1.9375 -0.863281 2.097656 -1.21875 2.265625 -1.71875 Z M 5.9375 -11.609375 L 3.859375 -5.171875 L 8.171875 -5.171875 L 5.984375 -11.609375 Z M 8.84375 -17.4375 C 8.84375 -17.1875 8.789062 -16.941406 8.6875 -16.703125 C 8.59375 -16.472656 8.457031 -16.269531 8.28125 -16.09375 C 8.113281 -15.914062 7.914062 -15.773438 7.6875 -15.671875 C 7.457031 -15.578125 7.207031 -15.53125 6.9375 -15.53125 C 6.664062 -15.53125 6.410156 -15.578125 6.171875 -15.671875 C 5.941406 -15.773438 5.742188 -15.914062 5.578125 -16.09375 C 5.410156 -16.269531 5.273438 -16.472656 5.171875 -16.703125 C 5.078125 -16.941406 5.03125 -17.1875 5.03125 -17.4375 C 5.03125 -17.695312 5.078125 -17.941406 5.171875 -18.171875 C 5.273438 -18.410156 5.410156 -18.613281 5.578125 -18.78125 C 5.742188 -18.957031 5.941406 -19.09375 6.171875 -19.1875 C 6.410156 -19.289062 6.664062 -19.34375 6.9375 -19.34375 C 7.207031 -19.34375 7.457031 -19.289062 7.6875 -19.1875 C 7.914062 -19.09375 8.113281 -18.957031 8.28125 -18.78125 C 8.457031 -18.613281 8.59375 -18.410156 8.6875 -18.171875 C 8.789062 -17.941406 8.84375 -17.695312 8.84375 -17.4375 Z M 6.9375 -16.171875 C 7.289062 -16.171875 7.585938 -16.296875 7.828125 -16.546875 C 8.078125 -16.804688 8.203125 -17.101562 8.203125 -17.4375 C 8.203125 -17.78125 8.078125 -18.078125 7.828125 -18.328125 C 7.585938 -18.585938 7.28125 -18.71875 6.90625 -18.71875 C 6.570312 -18.71875 6.28125 -18.585938 6.03125 -18.328125 C 5.78125 -18.078125 5.65625 -17.78125 5.65625 -17.4375 C 5.65625 -17.101562 5.78125 -16.804688 6.03125 -16.546875 C 6.28125 -16.296875 6.582031 -16.171875 6.9375 -16.171875 Z M 6.9375 -16.171875 "/></g></g></g><g fill="#000000" fill-opacity="1"><g transform="translate(58.169673, 66.667233)"><g/></g></g><g fill="#000000" fill-opacity="1"><g transform="translate(63.600063, 66.667233)"><g><path d="M 6.796875 -15.28125 L 7.015625 -15.28125 L 12.171875 -0.34375 L 13.9375 -0.34375 L 13.9375 0 L 7.71875 0 L 7.71875 -0.34375 L 9.796875 -0.34375 L 8.28125 -4.84375 L 3.734375 -4.84375 C 3.453125 -3.976562 3.234375 -3.300781 3.078125 -2.8125 C 2.921875 -2.320312 2.800781 -1.945312 2.71875 -1.6875 C 2.644531 -1.4375 2.597656 -1.257812 2.578125 -1.15625 C 2.554688 -1.0625 2.546875 -0.96875 2.546875 -0.875 C 2.546875 -0.519531 2.878906 -0.34375 3.546875 -0.34375 L 4.578125 -0.34375 L 4.578125 0 L 0.21875 0 L 0.21875 -0.34375 L 0.96875 -0.34375 C 1.363281 -0.34375 1.632812 -0.445312 1.78125 -0.65625 C 1.9375 -0.863281 2.097656 -1.21875 2.265625 -1.71875 Z M 5.9375 -11.609375 L 3.859375 -5.171875 L 8.171875 -5.171875 L 5.984375 -11.609375 Z M 5.9375 -11.609375 "/></g></g></g><g fill="#000000" fill-opacity="1"><g transform="translate(77.282099, 66.667233)"><g><path d="M 6.765625 -14.9375 C 7.472656 -14.9375 8.125 -14.847656 8.71875 -14.671875 C 9.3125 -14.503906 9.820312 -14.269531 10.25 -13.96875 C 10.675781 -13.675781 11.007812 -13.328125 11.25 -12.921875 C 11.488281 -12.523438 11.609375 -12.085938 11.609375 -11.609375 C 11.609375 -11.140625 11.539062 -10.695312 11.40625 -10.28125 C 11.28125 -9.863281 11.054688 -9.488281 10.734375 -9.15625 C 10.421875 -8.820312 9.988281 -8.546875 9.4375 -8.328125 C 8.882812 -8.117188 8.1875 -7.988281 7.34375 -7.9375 L 7.34375 -7.890625 C 8.820312 -7.765625 9.96875 -7.375 10.78125 -6.71875 C 11.601562 -6.0625 12.015625 -5.160156 12.015625 -4.015625 C 12.015625 -3.359375 11.882812 -2.78125 11.625 -2.28125 C 11.375 -1.78125 11.035156 -1.359375 10.609375 -1.015625 C 10.179688 -0.679688 9.695312 -0.425781 9.15625 -0.25 C 8.613281 -0.0820312 8.046875 0 7.453125 0 L 0.21875 0 L 0.21875 -0.34375 L 2.234375 -0.34375 L 2.234375 -14.59375 L 0.21875 -14.59375 L 0.21875 -14.9375 Z M 5.90625 -8.109375 C 7.195312 -8.109375 8.109375 -8.382812 8.640625 -8.9375 C 9.171875 -9.488281 9.4375 -10.304688 9.4375 -11.390625 C 9.4375 -11.785156 9.351562 -12.175781 9.1875 -12.5625 C 9.03125 -12.957031 8.789062 -13.300781 8.46875 -13.59375 C 8.144531 -13.894531 7.738281 -14.132812 7.25 -14.3125 C 6.757812 -14.5 6.1875 -14.59375 5.53125 -14.59375 L 4.390625 -14.59375 L 4.390625 -8.109375 Z M 6.265625 -0.34375 C 7.296875 -0.34375 8.109375 -0.660156 8.703125 -1.296875 C 9.296875 -1.941406 9.59375 -2.910156 9.59375 -4.203125 C 9.59375 -4.710938 9.507812 -5.1875 9.34375 -5.625 C 9.1875 -6.0625 8.941406 -6.4375 8.609375 -6.75 C 8.273438 -7.070312 7.847656 -7.320312 7.328125 -7.5 C 6.816406 -7.675781 6.210938 -7.765625 5.515625 -7.765625 L 4.390625 -7.765625 L 4.390625 -0.34375 Z M 6.265625 -0.34375 "/></g></g></g></svg>