<svg xmlns="http://www.w3.org/2000/svg" xmlns:xlink="http://www.w3.org/1999/xlink" width="200" zoomAndPan="magnify" viewBox="0 0 150 52.499999" height="70" preserveAspectRatio="xMidYMid meet" version="1.0"><defs><g/></defs><g fill="#000000" fill-opacity="1"><g transform="translate(0.707549, 20.747041)"><g><path d="M 7.453125 0.40625 C 8.359375 0.40625 9.210938 0.195312 10.015625 -0.21875 C 10.816406 -0.644531 11.515625 -1.203125 12.109375 -1.890625 C 12.710938 -2.585938 13.1875 -3.382812 13.53125 -4.28125 C 13.882812 -5.1875 14.0625 -6.125 14.0625 -7.09375 C 14.0625 -8.0625 13.882812 -8.992188 13.53125 -9.890625 C 13.1875 -10.796875 12.710938 -11.59375 12.109375 -12.28125 C 11.515625 -12.96875 10.816406 -13.515625 10.015625 -13.921875 C 9.210938 -14.335938 8.359375 -14.546875 7.453125 -14.546875 C 6.546875 -14.546875 5.691406 -14.335938 4.890625 -13.921875 C 4.085938 -13.515625 3.382812 -12.96875 2.78125 -12.28125 C 2.1875 -11.59375 1.71875 -10.796875 1.375 -9.890625 C 1.03125 -8.992188 0.859375 -8.0625 0.859375 -7.09375 C 0.859375 -6.125 1.03125 -5.1875 1.375 -4.28125 C 1.71875 -3.382812 2.1875 -2.585938 2.78125 -1.890625 C 3.382812 -1.203125 4.085938 -0.644531 4.890625 -0.21875 C 5.691406 0.195312 6.546875 0.40625 7.453125 0.40625 Z M 7.453125 -14.15625 C 8.085938 -14.15625 8.65625 -14.054688 9.15625 -13.859375 C 9.65625 -13.660156 10.070312 -13.328125 10.40625 -12.859375 C 10.738281 -12.390625 10.992188 -11.769531 11.171875 -11 C 11.347656 -10.238281 11.4375 -9.289062 11.4375 -8.15625 L 11.4375 -6.03125 C 11.4375 -3.96875 11.09375 -2.441406 10.40625 -1.453125 C 9.726562 -0.472656 8.742188 0.015625 7.453125 0.015625 C 6.160156 0.015625 5.171875 -0.472656 4.484375 -1.453125 C 3.804688 -2.441406 3.46875 -3.96875 3.46875 -6.03125 L 3.46875 -8.15625 C 3.46875 -9.257812 3.554688 -10.191406 3.734375 -10.953125 C 3.910156 -11.710938 4.164062 -12.332031 4.5 -12.8125 C 4.832031 -13.289062 5.25 -13.632812 5.75 -13.84375 C 6.25 -14.050781 6.816406 -14.15625 7.453125 -14.15625 Z M 7.453125 -14.15625 "/></g></g></g><g fill="#000000" fill-opacity="1"><g transform="translate(14.95194, 20.747041)"><g><path d="M 6.96875 -14.3125 L 0.6875 -14.3125 L 0.6875 -13.96875 L 2.5625 -13.96875 L 2.5625 -0.34375 L 0.6875 -0.34375 L 0.6875 0 L 6.96875 0 C 7.957031 0 8.863281 -0.171875 9.6875 -0.515625 C 10.507812 -0.867188 11.210938 -1.363281 11.796875 -2 C 12.378906 -2.632812 12.828125 -3.40625 13.140625 -4.3125 C 13.460938 -5.21875 13.625 -6.222656 13.625 -7.328125 C 13.625 -8.359375 13.460938 -9.300781 13.140625 -10.15625 C 12.816406 -11.019531 12.359375 -11.757812 11.765625 -12.375 C 11.171875 -13 10.46875 -13.476562 9.65625 -13.8125 C 8.84375 -14.144531 7.945312 -14.3125 6.96875 -14.3125 Z M 11.28125 -7.859375 L 11.28125 -6.796875 C 11.28125 -5.523438 11.160156 -4.472656 10.921875 -3.640625 C 10.691406 -2.816406 10.378906 -2.160156 9.984375 -1.671875 C 9.585938 -1.179688 9.125 -0.835938 8.59375 -0.640625 C 8.070312 -0.441406 7.515625 -0.34375 6.921875 -0.34375 L 4.625 -0.34375 L 4.625 -13.96875 L 6.921875 -13.96875 C 7.503906 -13.96875 8.054688 -13.863281 8.578125 -13.65625 C 9.109375 -13.457031 9.570312 -13.117188 9.96875 -12.640625 C 10.375 -12.160156 10.691406 -11.53125 10.921875 -10.75 C 11.160156 -9.96875 11.28125 -9.003906 11.28125 -7.859375 Z M 11.28125 -7.859375 "/></g></g></g><g fill="#000000" fill-opacity="1"><g transform="translate(28.578849, 20.747041)"><g><path d="M 4.59375 -7.375 L 6.28125 -7.375 C 6.59375 -7.375 6.84375 -7.328125 7.03125 -7.234375 C 7.21875 -7.140625 7.363281 -7.003906 7.46875 -6.828125 C 7.570312 -6.660156 7.648438 -6.457031 7.703125 -6.21875 C 7.765625 -5.976562 7.820312 -5.707031 7.875 -5.40625 C 7.914062 -5.207031 7.972656 -5.109375 8.046875 -5.109375 C 8.128906 -5.109375 8.171875 -5.203125 8.171875 -5.390625 L 8.171875 -9.71875 C 8.171875 -9.882812 8.128906 -9.96875 8.046875 -9.96875 C 7.972656 -9.96875 7.914062 -9.867188 7.875 -9.671875 C 7.820312 -9.367188 7.765625 -9.097656 7.703125 -8.859375 C 7.648438 -8.617188 7.570312 -8.410156 7.46875 -8.234375 C 7.363281 -8.066406 7.21875 -7.9375 7.03125 -7.84375 C 6.84375 -7.75 6.59375 -7.703125 6.28125 -7.703125 L 4.59375 -7.703125 L 4.59375 -13.96875 L 7.84375 -13.96875 C 8.320312 -13.96875 8.722656 -13.847656 9.046875 -13.609375 C 9.378906 -13.378906 9.644531 -13.085938 9.84375 -12.734375 C 10.039062 -12.390625 10.1875 -12.019531 10.28125 -11.625 C 10.375 -11.238281 10.425781 -10.890625 10.4375 -10.578125 C 10.4375 -10.378906 10.492188 -10.28125 10.609375 -10.28125 C 10.703125 -10.28125 10.75 -10.375 10.75 -10.5625 L 10.75 -13.796875 C 10.75 -14.140625 10.570312 -14.3125 10.21875 -14.3125 L 0.703125 -14.3125 L 0.703125 -13.96875 L 2.53125 -13.96875 L 2.53125 -0.34375 L 0.71875 -0.34375 L 0.71875 0 L 10.734375 0 C 11.140625 0 11.34375 -0.226562 11.34375 -0.6875 L 11.34375 -3.875 C 11.34375 -4.21875 11.289062 -4.390625 11.1875 -4.390625 C 11.082031 -4.390625 11.003906 -4.238281 10.953125 -3.9375 C 10.835938 -3.394531 10.710938 -2.90625 10.578125 -2.46875 C 10.453125 -2.03125 10.28125 -1.648438 10.0625 -1.328125 C 9.851562 -1.015625 9.585938 -0.769531 9.265625 -0.59375 C 8.941406 -0.425781 8.53125 -0.34375 8.03125 -0.34375 L 4.59375 -0.34375 Z M 4.59375 -7.375 "/></g></g></g><g fill="#000000" fill-opacity="1"><g transform="translate(40.332043, 20.747041)"><g><path d="M 5.984375 -14.3125 L 0.234375 -14.3125 L 0.234375 -13.96875 L 2.0625 -13.96875 L 6.859375 0.21875 L 7.234375 0.21875 L 11.796875 -13.96875 L 13.328125 -13.96875 L 13.328125 -14.3125 L 9.515625 -14.3125 L 9.515625 -13.96875 L 11.34375 -13.96875 L 7.8125 -2.953125 L 4.0625 -13.96875 L 5.984375 -13.96875 Z M 5.984375 -14.3125 "/></g></g></g><g fill="#000000" fill-opacity="1"><g transform="translate(53.320189, 20.747041)"><g><path d="M 0.46875 -0.34375 L 0.46875 0 L 5.203125 0 L 5.203125 -0.34375 L 2.6875 -0.34375 L 4.03125 -4.453125 L 8.3125 -4.453125 L 9.6875 -0.34375 L 7.5 -0.34375 L 7.5 0 L 13.734375 0 L 13.734375 -0.34375 L 11.890625 -0.34375 L 7.21875 -14.5 L 6.96875 -14.5 L 2.296875 -0.34375 Z M 6.15625 -10.875 L 8.203125 -4.796875 L 4.15625 -4.796875 Z M 6.15625 -10.875 "/></g></g></g><g fill="#000000" fill-opacity="1"><g transform="translate(66.925803, 20.747041)"><g><path d="M 11.8125 -3.9375 C 11.707031 -3.394531 11.585938 -2.90625 11.453125 -2.46875 C 11.328125 -2.03125 11.15625 -1.648438 10.9375 -1.328125 C 10.726562 -1.015625 10.457031 -0.769531 10.125 -0.59375 C 9.800781 -0.425781 9.394531 -0.34375 8.90625 -0.34375 L 4.53125 -0.34375 L 4.53125 -13.96875 L 6.5625 -13.96875 L 6.5625 -14.3125 L 0.640625 -14.3125 L 0.640625 -13.96875 L 2.46875 -13.96875 L 2.46875 -0.34375 L 0.640625 -0.34375 L 0.640625 0 L 11.609375 0 C 12.015625 0 12.21875 -0.226562 12.21875 -0.6875 L 12.21875 -3.875 C 12.21875 -4.21875 12.160156 -4.390625 12.046875 -4.390625 C 11.953125 -4.390625 11.875 -4.238281 11.8125 -3.9375 Z M 11.8125 -3.9375 "/></g></g></g><g fill="#000000" fill-opacity="1"><g transform="translate(79.211306, 20.747041)"><g><path d="M 11.8125 -3.9375 C 11.707031 -3.394531 11.585938 -2.90625 11.453125 -2.46875 C 11.328125 -2.03125 11.15625 -1.648438 10.9375 -1.328125 C 10.726562 -1.015625 10.457031 -0.769531 10.125 -0.59375 C 9.800781 -0.425781 9.394531 -0.34375 8.90625 -0.34375 L 4.53125 -0.34375 L 4.53125 -13.96875 L 6.5625 -13.96875 L 6.5625 -14.3125 L 0.640625 -14.3125 L 0.640625 -13.96875 L 2.46875 -13.96875 L 2.46875 -0.34375 L 0.640625 -0.34375 L 0.640625 0 L 11.609375 0 C 12.015625 0 12.21875 -0.226562 12.21875 -0.6875 L 12.21875 -3.875 C 12.21875 -4.21875 12.160156 -4.390625 12.046875 -4.390625 C 11.953125 -4.390625 11.875 -4.238281 11.8125 -3.9375 Z M 11.8125 -3.9375 "/></g></g></g><g fill="#000000" fill-opacity="1"><g transform="translate(91.510338, 20.747041)"><g/></g></g><g fill="#000000" fill-opacity="1"><g transform="translate(0.707549, 42.164898)"><g><path d="M 0.390625 -0.28125 L 0.390625 0 L 4.328125 0 L 4.328125 -0.28125 L 2.234375 -0.28125 L 3.34375 -3.703125 L 6.90625 -3.703125 L 8.0625 -0.28125 L 6.234375 -0.28125 L 6.234375 0 L 11.421875 0 L 11.421875 -0.28125 L 9.890625 -0.28125 L 6 -12.0625 L 5.796875 -12.0625 L 1.90625 -0.28125 Z M 5.125 -9.046875 L 6.828125 -3.984375 L 3.453125 -3.984375 Z M 5.125 -9.046875 "/></g></g></g><g fill="#000000" fill-opacity="1"><g transform="translate(12.032201, 42.164898)"><g><path d="M 5.796875 -11.90625 L 0.5625 -11.90625 L 0.5625 -11.625 L 2.125 -11.625 L 2.125 -0.28125 L 0.5625 -0.28125 L 0.5625 0 L 5.796875 0 C 6.617188 0 7.375 -0.144531 8.0625 -0.4375 C 8.75 -0.726562 9.332031 -1.140625 9.8125 -1.671875 C 10.300781 -2.203125 10.675781 -2.84375 10.9375 -3.59375 C 11.207031 -4.34375 11.34375 -5.175781 11.34375 -6.09375 C 11.34375 -6.957031 11.207031 -7.742188 10.9375 -8.453125 C 10.664062 -9.171875 10.28125 -9.785156 9.78125 -10.296875 C 9.289062 -10.816406 8.707031 -11.210938 8.03125 -11.484375 C 7.351562 -11.765625 6.609375 -11.90625 5.796875 -11.90625 Z M 9.390625 -6.53125 L 9.390625 -5.65625 C 9.390625 -4.601562 9.289062 -3.726562 9.09375 -3.03125 C 8.90625 -2.34375 8.644531 -1.796875 8.3125 -1.390625 C 7.976562 -0.984375 7.59375 -0.695312 7.15625 -0.53125 C 6.71875 -0.363281 6.253906 -0.28125 5.765625 -0.28125 L 3.84375 -0.28125 L 3.84375 -11.625 L 5.765625 -11.625 C 6.242188 -11.625 6.703125 -11.535156 7.140625 -11.359375 C 7.578125 -11.191406 7.960938 -10.910156 8.296875 -10.515625 C 8.640625 -10.117188 8.90625 -9.59375 9.09375 -8.9375 C 9.289062 -8.289062 9.390625 -7.488281 9.390625 -6.53125 Z M 9.390625 -6.53125 "/></g></g></g><g fill="#000000" fill-opacity="1"><g transform="translate(23.37457, 42.164898)"><g><path d="M 4.984375 -11.90625 L 0.1875 -11.90625 L 0.1875 -11.625 L 1.71875 -11.625 L 5.703125 0.171875 L 6.03125 0.171875 L 9.8125 -11.625 L 11.09375 -11.625 L 11.09375 -11.90625 L 7.921875 -11.90625 L 7.921875 -11.625 L 9.4375 -11.625 L 6.5 -2.46875 L 3.390625 -11.625 L 4.984375 -11.625 Z M 4.984375 -11.90625 "/></g></g></g><g fill="#000000" fill-opacity="1"><g transform="translate(34.185257, 42.164898)"><g><path d="M 6.203125 0.34375 C 6.953125 0.34375 7.660156 0.171875 8.328125 -0.171875 C 9.003906 -0.523438 9.585938 -0.988281 10.078125 -1.5625 C 10.578125 -2.144531 10.96875 -2.8125 11.25 -3.5625 C 11.539062 -4.320312 11.6875 -5.101562 11.6875 -5.90625 C 11.6875 -6.707031 11.539062 -7.484375 11.25 -8.234375 C 10.96875 -8.984375 10.578125 -9.644531 10.078125 -10.21875 C 9.585938 -10.789062 9.003906 -11.25 8.328125 -11.59375 C 7.660156 -11.9375 6.953125 -12.109375 6.203125 -12.109375 C 5.441406 -12.109375 4.726562 -11.9375 4.0625 -11.59375 C 3.394531 -11.25 2.8125 -10.789062 2.3125 -10.21875 C 1.820312 -9.644531 1.429688 -8.984375 1.140625 -8.234375 C 0.847656 -7.484375 0.703125 -6.707031 0.703125 -5.90625 C 0.703125 -5.101562 0.847656 -4.320312 1.140625 -3.5625 C 1.429688 -2.8125 1.820312 -2.144531 2.3125 -1.5625 C 2.8125 -0.988281 3.394531 -0.523438 4.0625 -0.171875 C 4.726562 0.171875 5.441406 0.34375 6.203125 0.34375 Z M 6.203125 -11.78125 C 6.734375 -11.78125 7.203125 -11.695312 7.609375 -11.53125 C 8.023438 -11.363281 8.375 -11.085938 8.65625 -10.703125 C 8.9375 -10.316406 9.148438 -9.800781 9.296875 -9.15625 C 9.441406 -8.519531 9.515625 -7.726562 9.515625 -6.78125 L 9.515625 -5.015625 C 9.515625 -3.296875 9.226562 -2.023438 8.65625 -1.203125 C 8.09375 -0.390625 7.273438 0.015625 6.203125 0.015625 C 5.128906 0.015625 4.304688 -0.390625 3.734375 -1.203125 C 3.171875 -2.023438 2.890625 -3.296875 2.890625 -5.015625 L 2.890625 -6.78125 C 2.890625 -7.707031 2.960938 -8.484375 3.109375 -9.109375 C 3.253906 -9.742188 3.460938 -10.257812 3.734375 -10.65625 C 4.015625 -11.050781 4.363281 -11.335938 4.78125 -11.515625 C 5.195312 -11.691406 5.671875 -11.78125 6.203125 -11.78125 Z M 6.203125 -11.78125 "/></g></g></g><g fill="#000000" fill-opacity="1"><g transform="translate(46.04159, 42.164898)"><g><path d="M 5.15625 -11.625 L 5.15625 -11.90625 L 0.609375 -11.90625 L 0.609375 -11.625 L 2.015625 -11.625 L 2.015625 -0.28125 L 0.609375 -0.28125 L 0.609375 0 L 5.15625 0 L 5.15625 -0.28125 L 3.734375 -0.28125 L 3.734375 -11.625 Z M 8.96875 -11.625 L 3.859375 -6.515625 L 8.234375 -0.28125 L 6.703125 -0.28125 L 6.703125 0 L 11.71875 0 L 11.71875 -0.28125 L 10.296875 -0.28125 L 5.28125 -7.484375 L 9.421875 -11.625 L 10.9375 -11.625 L 10.9375 -11.90625 L 7.4375 -11.90625 L 7.4375 -11.625 Z M 8.96875 -11.625 "/></g></g></g><g fill="#000000" fill-opacity="1"><g transform="translate(57.561186, 42.164898)"><g><path d="M 0.390625 -0.28125 L 0.390625 0 L 4.328125 0 L 4.328125 -0.28125 L 2.234375 -0.28125 L 3.34375 -3.703125 L 6.90625 -3.703125 L 8.0625 -0.28125 L 6.234375 -0.28125 L 6.234375 0 L 11.421875 0 L 11.421875 -0.28125 L 9.890625 -0.28125 L 6 -12.0625 L 5.796875 -12.0625 L 1.90625 -0.28125 Z M 5.125 -9.046875 L 6.828125 -3.984375 L 3.453125 -3.984375 Z M 5.125 -9.046875 "/></g></g></g><g fill="#000000" fill-opacity="1"><g transform="translate(68.885835, 42.164898)"><g><path d="M 6.390625 -0.28125 L 6.390625 -11.625 L 7.921875 -11.625 C 8.460938 -11.625 8.9375 -11.34375 9.34375 -10.78125 C 9.75 -10.226562 10.019531 -9.472656 10.15625 -8.515625 L 10.53125 -8.515625 L 10.265625 -11.609375 C 10.242188 -11.804688 10.125 -11.90625 9.90625 -11.90625 L 1.171875 -11.90625 C 0.941406 -11.90625 0.820312 -11.804688 0.8125 -11.609375 L 0.546875 -8.515625 L 0.921875 -8.515625 C 1.046875 -9.472656 1.3125 -10.226562 1.71875 -10.78125 C 2.132812 -11.34375 2.613281 -11.625 3.15625 -11.625 L 4.671875 -11.625 L 4.671875 -0.28125 L 3.15625 -0.28125 L 3.15625 0 L 7.921875 0 L 7.921875 -0.28125 Z M 6.390625 -0.28125 "/></g></g></g><g fill="#000000" fill-opacity="1"><g transform="translate(79.466137, 42.164898)"><g><path d="M 9.296875 -9.140625 C 9.296875 -9.578125 9.195312 -9.96875 9 -10.3125 C 8.800781 -10.664062 8.53125 -10.957031 8.1875 -11.1875 C 7.851562 -11.414062 7.46875 -11.59375 7.03125 -11.71875 C 6.59375 -11.84375 6.140625 -11.90625 5.671875 -11.90625 L 0.515625 -11.90625 L 0.515625 -11.625 L 2.03125 -11.625 L 2.03125 -0.28125 L 0.515625 -0.28125 L 0.515625 0 L 5.8125 0 C 7.039062 0 7.992188 -0.28125 8.671875 -0.84375 C 9.347656 -1.414062 9.6875 -2.203125 9.6875 -3.203125 C 9.6875 -3.722656 9.582031 -4.175781 9.375 -4.5625 C 9.175781 -4.957031 8.921875 -5.289062 8.609375 -5.5625 C 8.304688 -5.832031 7.96875 -6.039062 7.59375 -6.1875 C 7.21875 -6.34375 6.875 -6.4375 6.5625 -6.46875 C 6.945312 -6.539062 7.304688 -6.644531 7.640625 -6.78125 C 7.984375 -6.914062 8.273438 -7.09375 8.515625 -7.3125 C 8.753906 -7.53125 8.941406 -7.789062 9.078125 -8.09375 C 9.222656 -8.394531 9.296875 -8.742188 9.296875 -9.140625 Z M 3.75 -6.578125 L 3.75 -11.625 L 5.671875 -11.625 C 5.960938 -11.625 6.226562 -11.582031 6.46875 -11.5 C 6.707031 -11.425781 6.90625 -11.296875 7.0625 -11.109375 C 7.226562 -10.929688 7.359375 -10.691406 7.453125 -10.390625 C 7.546875 -10.085938 7.59375 -9.71875 7.59375 -9.28125 L 7.59375 -9 C 7.59375 -8.53125 7.546875 -8.140625 7.453125 -7.828125 C 7.359375 -7.515625 7.226562 -7.265625 7.0625 -7.078125 C 6.90625 -6.890625 6.703125 -6.757812 6.453125 -6.6875 C 6.210938 -6.613281 5.953125 -6.578125 5.671875 -6.578125 Z M 3.75 -0.28125 L 3.75 -6.296875 L 5.671875 -6.296875 C 6.484375 -6.296875 7.0625 -6.046875 7.40625 -5.546875 C 7.757812 -5.046875 7.9375 -4.335938 7.9375 -3.421875 L 7.9375 -3 C 7.9375 -2.132812 7.769531 -1.460938 7.4375 -0.984375 C 7.113281 -0.515625 6.523438 -0.28125 5.671875 -0.28125 Z M 3.75 -0.28125 "/></g></g></g><g fill="#000000" fill-opacity="1"><g transform="translate(89.674255, 42.164898)"><g><path d="M 5.515625 -11.90625 L 0.5625 -11.90625 L 0.5625 -11.625 L 1.984375 -11.625 L 5.421875 -5.84375 L 5.421875 -0.28125 L 3.71875 -0.28125 L 3.71875 0 L 8.84375 0 L 8.84375 -0.28125 L 7.140625 -0.28125 L 7.140625 -6.3125 L 10.0625 -11.625 L 11.5 -11.625 L 11.5 -11.90625 L 7.890625 -11.90625 L 7.890625 -11.625 L 9.609375 -11.625 L 6.859375 -6.625 L 3.875 -11.625 L 5.515625 -11.625 Z M 5.515625 -11.90625 "/></g></g></g><g fill="#000000" fill-opacity="1"><g transform="translate(101.016624, 42.164898)"><g><path d="M 9.359375 -0.765625 C 9.316406 -0.878906 9.285156 -1.039062 9.265625 -1.25 C 9.253906 -1.46875 9.242188 -1.703125 9.234375 -1.953125 C 9.234375 -2.203125 9.226562 -2.453125 9.21875 -2.703125 C 9.21875 -2.960938 9.195312 -3.210938 9.15625 -3.453125 C 9.082031 -3.921875 8.960938 -4.304688 8.796875 -4.609375 C 8.640625 -4.921875 8.441406 -5.175781 8.203125 -5.375 C 7.960938 -5.570312 7.6875 -5.722656 7.375 -5.828125 C 7.070312 -5.941406 6.742188 -6.046875 6.390625 -6.140625 C 7.316406 -6.304688 8.023438 -6.632812 8.515625 -7.125 C 9.015625 -7.613281 9.265625 -8.234375 9.265625 -8.984375 C 9.265625 -9.441406 9.164062 -9.851562 8.96875 -10.21875 C 8.78125 -10.582031 8.519531 -10.890625 8.1875 -11.140625 C 7.851562 -11.390625 7.457031 -11.578125 7 -11.703125 C 6.550781 -11.835938 6.070312 -11.90625 5.5625 -11.90625 L 0.5625 -11.90625 L 0.5625 -11.625 L 2.09375 -11.625 L 2.09375 -0.28125 L 0.5625 -0.28125 L 0.5625 0 L 5.328125 0 L 5.328125 -0.28125 L 3.8125 -0.28125 L 3.8125 -6.078125 L 5.28125 -6.078125 C 5.46875 -6.078125 5.664062 -6.039062 5.875 -5.96875 C 6.09375 -5.90625 6.289062 -5.78125 6.46875 -5.59375 C 6.65625 -5.414062 6.816406 -5.164062 6.953125 -4.84375 C 7.085938 -4.519531 7.1875 -4.101562 7.25 -3.59375 C 7.28125 -3.289062 7.296875 -2.976562 7.296875 -2.65625 C 7.304688 -2.332031 7.328125 -2.023438 7.359375 -1.734375 C 7.390625 -1.441406 7.441406 -1.171875 7.515625 -0.921875 C 7.597656 -0.671875 7.722656 -0.457031 7.890625 -0.28125 C 8.035156 -0.113281 8.210938 -0.00390625 8.421875 0.046875 C 8.628906 0.109375 8.851562 0.140625 9.09375 0.140625 C 9.289062 0.140625 9.488281 0.117188 9.6875 0.078125 C 9.894531 0.0351562 10.082031 -0.0078125 10.25 -0.0625 C 10.414062 -0.125 10.5625 -0.1875 10.6875 -0.25 C 10.8125 -0.320312 10.90625 -0.382812 10.96875 -0.4375 C 11 -0.476562 11.015625 -0.515625 11.015625 -0.546875 C 11.015625 -0.585938 11 -0.609375 10.96875 -0.609375 C 10.945312 -0.609375 10.910156 -0.59375 10.859375 -0.5625 C 10.617188 -0.394531 10.351562 -0.3125 10.0625 -0.3125 C 9.695312 -0.3125 9.460938 -0.460938 9.359375 -0.765625 Z M 3.8125 -6.359375 L 3.8125 -11.625 L 5.5625 -11.625 C 6.90625 -11.625 7.578125 -10.847656 7.578125 -9.296875 L 7.578125 -8.671875 C 7.578125 -7.128906 6.90625 -6.359375 5.5625 -6.359375 Z M 3.8125 -6.359375 "/></g></g></g><g fill="#000000" fill-opacity="1"><g transform="translate(111.756422, 42.164898)"><g><path d="M 7.171875 -14.140625 C 7.171875 -14.503906 7.039062 -14.816406 6.78125 -15.078125 C 6.519531 -15.335938 6.207031 -15.46875 5.84375 -15.46875 C 5.476562 -15.46875 5.164062 -15.335938 4.90625 -15.078125 C 4.644531 -14.816406 4.515625 -14.503906 4.515625 -14.140625 C 4.515625 -13.773438 4.644531 -13.460938 4.90625 -13.203125 C 5.164062 -12.941406 5.476562 -12.8125 5.84375 -12.8125 C 6.207031 -12.8125 6.519531 -12.941406 6.78125 -13.203125 C 7.039062 -13.460938 7.171875 -13.773438 7.171875 -14.140625 Z M 4.796875 -14.140625 C 4.796875 -14.429688 4.894531 -14.675781 5.09375 -14.875 C 5.300781 -15.082031 5.550781 -15.1875 5.84375 -15.1875 C 6.144531 -15.1875 6.394531 -15.082031 6.59375 -14.875 C 6.789062 -14.675781 6.890625 -14.429688 6.890625 -14.140625 C 6.890625 -13.847656 6.789062 -13.597656 6.59375 -13.390625 C 6.394531 -13.191406 6.144531 -13.09375 5.84375 -13.09375 C 5.550781 -13.09375 5.300781 -13.191406 5.09375 -13.390625 C 4.894531 -13.597656 4.796875 -13.847656 4.796875 -14.140625 Z M 0.390625 -0.28125 L 0.390625 0 L 4.328125 0 L 4.328125 -0.28125 L 2.234375 -0.28125 L 3.34375 -3.703125 L 6.90625 -3.703125 L 8.0625 -0.28125 L 6.234375 -0.28125 L 6.234375 0 L 11.421875 0 L 11.421875 -0.28125 L 9.890625 -0.28125 L 6 -12.0625 L 5.796875 -12.0625 L 1.90625 -0.28125 Z M 5.125 -9.046875 L 6.828125 -3.984375 L 3.453125 -3.984375 Z M 5.125 -9.046875 "/></g></g></g><g fill="#000000" fill-opacity="1"><g transform="translate(123.081069, 42.164898)"><g/></g></g><g fill="#000000" fill-opacity="1"><g transform="translate(127.458437, 42.164898)"><g><path d="M 0.390625 -0.28125 L 0.390625 0 L 4.328125 0 L 4.328125 -0.28125 L 2.234375 -0.28125 L 3.34375 -3.703125 L 6.90625 -3.703125 L 8.0625 -0.28125 L 6.234375 -0.28125 L 6.234375 0 L 11.421875 0 L 11.421875 -0.28125 L 9.890625 -0.28125 L 6 -12.0625 L 5.796875 -12.0625 L 1.90625 -0.28125 Z M 5.125 -9.046875 L 6.828125 -3.984375 L 3.453125 -3.984375 Z M 5.125 -9.046875 "/></g></g></g><g fill="#000000" fill-opacity="1"><g transform="translate(138.783091, 42.164898)"><g><path d="M 9.296875 -9.140625 C 9.296875 -9.578125 9.195312 -9.96875 9 -10.3125 C 8.800781 -10.664062 8.53125 -10.957031 8.1875 -11.1875 C 7.851562 -11.414062 7.46875 -11.59375 7.03125 -11.71875 C 6.59375 -11.84375 6.140625 -11.90625 5.671875 -11.90625 L 0.515625 -11.90625 L 0.515625 -11.625 L 2.03125 -11.625 L 2.03125 -0.28125 L 0.515625 -0.28125 L 0.515625 0 L 5.8125 0 C 7.039062 0 7.992188 -0.28125 8.671875 -0.84375 C 9.347656 -1.414062 9.6875 -2.203125 9.6875 -3.203125 C 9.6875 -3.722656 9.582031 -4.175781 9.375 -4.5625 C 9.175781 -4.957031 8.921875 -5.289062 8.609375 -5.5625 C 8.304688 -5.832031 7.96875 -6.039062 7.59375 -6.1875 C 7.21875 -6.34375 6.875 -6.4375 6.5625 -6.46875 C 6.945312 -6.539062 7.304688 -6.644531 7.640625 -6.78125 C 7.984375 -6.914062 8.273438 -7.09375 8.515625 -7.3125 C 8.753906 -7.53125 8.941406 -7.789062 9.078125 -8.09375 C 9.222656 -8.394531 9.296875 -8.742188 9.296875 -9.140625 Z M 3.75 -6.578125 L 3.75 -11.625 L 5.671875 -11.625 C 5.960938 -11.625 6.226562 -11.582031 6.46875 -11.5 C 6.707031 -11.425781 6.90625 -11.296875 7.0625 -11.109375 C 7.226562 -10.929688 7.359375 -10.691406 7.453125 -10.390625 C 7.546875 -10.085938 7.59375 -9.71875 7.59375 -9.28125 L 7.59375 -9 C 7.59375 -8.53125 7.546875 -8.140625 7.453125 -7.828125 C 7.359375 -7.515625 7.226562 -7.265625 7.0625 -7.078125 C 6.90625 -6.890625 6.703125 -6.757812 6.453125 -6.6875 C 6.210938 -6.613281 5.953125 -6.578125 5.671875 -6.578125 Z M 3.75 -0.28125 L 3.75 -6.296875 L 5.671875 -6.296875 C 6.484375 -6.296875 7.0625 -6.046875 7.40625 -5.546875 C 7.757812 -5.046875 7.9375 -4.335938 7.9375 -3.421875 L 7.9375 -3 C 7.9375 -2.132812 7.769531 -1.460938 7.4375 -0.984375 C 7.113281 -0.515625 6.523438 -0.28125 5.671875 -0.28125 Z M 3.75 -0.28125 "/></g></g></g></svg>